<svg width="164" height="43" viewBox="0 0 164 43" fill="none" xmlns="http://www.w3.org/2000/svg">
<path d="M0.200086 11.0172C0.393783 15.6793 6.67892 19.5599 9.37733 17.0886C9.71129 16.7747 10.0786 16.4073 10.4527 15.9999C13.0776 13.1546 16.3438 8.419 16.3438 8.419C16.3438 8.419 15.589 4.96585 10.2389 3.57657C8.83631 3.20921 7.50715 3.17582 6.29821 3.40291C2.59792 4.09087 0.0464639 7.24346 0.200086 11.0172Z" fill="#FEFEFE"/>
<path d="M2.78508 6.12811C2.78508 6.12811 2.03033 8.90667 3.11904 10.6433C4.26119 12.48 6.65234 13.1079 6.65234 13.1079L6.62563 14.8979L3.2927 14.2701L1.79655 11.732L1.1086 8.90667L1.18207 8.25211" fill="#737374"/>
<path d="M0.20053 11.0172C0.340793 14.3702 3.63365 17.3224 6.47899 17.7899C6.51907 17.7988 6.56137 17.8055 6.60589 17.81C7.66121 17.9569 8.64973 17.7498 9.37777 17.0819C9.71173 16.7747 10.0791 16.4073 10.4531 15.9999L6.81295 14.103C6.81295 14.103 3.33308 13.3816 2.27776 10.8769C0.981996 7.79782 3.15942 4.6853 6.14503 3.46969C6.19846 3.44742 6.24967 3.42516 6.29865 3.40289C4.59545 3.71682 3.13271 4.5584 2.07071 5.74062C1.19573 6.7091 0.587924 7.91137 0.334114 9.24053C0.220567 9.81494 0.173813 10.4027 0.20053 11.0172Z" fill="#CBCBCB"/>
<path d="M0.200462 11.0173C0.340726 14.3702 3.63358 17.3224 6.47892 17.79C6.519 17.7989 6.5613 17.8056 6.60583 17.81L7.89492 17.3158L8.36914 15.1383L5.60394 14.2968C5.60394 14.2968 5.42361 15.1517 4.72229 15.0315C4.02097 14.9046 0.90846 12.9142 0.881743 9.63466C0.868384 8.4658 0.627932 8.59271 0.334046 9.24059C0.2205 9.815 0.173745 10.4028 0.200462 11.0173Z" fill="#050505"/>
<path d="M0.200053 11.0172C0.340317 14.3701 3.63317 17.3224 6.47852 17.7899L6.04437 17.0552C6.04437 17.0552 3.03204 15.7127 1.62273 13.2013C0.300241 10.8636 0.914728 7.33693 1.95669 5.96101C2.03238 5.8586 2.07023 5.78513 2.07023 5.7406C0.82122 7.1232 0.119903 8.98002 0.200053 11.0172Z" fill="#FEFEFE"/>
<path d="M4.68164 6.9162L3.23893 5.27979L2.9584 5.71394" fill="#CBCBCB"/>
<path d="M16.3437 8.419L16.1567 8.45239C16.1567 8.44571 15.9697 7.61081 15.1281 6.60893C14.2932 5.60037 12.8104 4.4315 10.1922 3.75022C9.3773 3.54317 8.58915 3.44298 7.84108 3.44298C5.69038 3.44298 3.83356 4.24449 2.50439 5.55361C1.17523 6.86274 0.38708 8.67281 0.38708 10.6899C0.38708 10.7968 0.389305 10.9037 0.393758 11.0105C0.427154 11.8922 0.694326 12.7538 1.11512 13.5486C1.74964 14.7375 2.74484 15.7728 3.85359 16.5075C4.95567 17.2422 6.17128 17.6764 7.23328 17.6764C7.62067 17.6764 7.98803 17.6163 8.32867 17.496C8.66263 17.3825 8.96987 17.2022 9.24372 16.955C9.90496 16.3472 10.6731 15.499 11.4545 14.5772C12.6167 13.188 13.8056 11.6183 14.694 10.4027C15.1415 9.79491 15.5155 9.27394 15.776 8.90658C15.9029 8.71956 16.0098 8.57262 16.0766 8.47243C16.1122 8.42345 16.1389 8.3856 16.1567 8.35888C16.1745 8.33217 16.1834 8.31881 16.1834 8.31881L16.3437 8.419L16.504 8.51919C16.504 8.51919 15.4354 10.0688 14.026 11.9323C13.3247 12.8607 12.5366 13.8692 11.7551 14.8043C10.967 15.7327 10.1922 16.5877 9.51089 17.2155C9.19696 17.5027 8.84297 17.7098 8.46225 17.8434C8.07486 17.977 7.66075 18.0371 7.23328 18.0371C6.45849 18.0371 5.63027 17.83 4.82208 17.4627C3.60646 16.9216 2.4376 16.0133 1.55594 14.8978C0.667607 13.7757 0.0664771 12.4399 0.00636418 11.0239C0.00191137 10.9126 -0.000313404 10.8013 -0.000313404 10.6899C-0.000313404 8.5793 0.834586 6.67572 2.23054 5.2998C3.6265 3.92388 5.59019 3.07562 7.84108 3.07562C8.62923 3.07562 9.4441 3.18249 10.2924 3.4029C13.0041 4.10422 14.5671 5.33988 15.4487 6.40187C16.3304 7.47055 16.5307 8.35888 16.5307 8.37892L16.5508 8.45239L16.504 8.51919L16.3437 8.419Z" fill="#050505"/>
<path d="M5.7839 14.4704C6.00431 16.6946 7.30008 17.1755 7.30008 17.1755L14.4802 10.3761L16.1768 8.77306C16.1768 8.77306 14.38 7.00974 11.3677 7.5708C10.9403 7.64427 10.4927 7.77117 10.0118 7.95151C6.19133 9.4343 5.6236 12.8674 5.7839 14.4704Z" fill="#FBE02C"/>
<path d="M5.78393 14.4705C5.93755 16.0067 6.59879 16.708 6.99954 17.0019C7.1732 17.1288 7.30011 17.1755 7.30011 17.1755L14.4803 10.3761L14.8877 8.24543C14.8877 8.24543 11.8553 8.03838 8.50237 11.5583C8.50237 11.5583 8.63595 9.23395 11.2074 7.67102C11.2653 7.6354 11.3188 7.59977 11.3678 7.56415C10.9403 7.6443 10.4861 7.77121 10.0119 7.95155C8.63595 8.48588 7.68082 9.27403 7.03294 10.1423C5.87744 11.6719 5.67706 13.4485 5.78393 14.4705Z" fill="#E88F30"/>
<path d="M5.78463 14.4704C5.93826 16.0066 6.5995 16.7079 7.00025 17.0018C7.05368 16.7213 7.09376 16.2471 6.81991 15.5725C5.69112 12.7939 7.26074 10.1155 7.26074 10.1155L7.03365 10.1423C5.87814 11.6718 5.67777 13.4485 5.78463 14.4704Z" fill="#FEFEFE"/>
<path d="M16.1772 8.77306L16.0436 8.89997C16.0302 8.88661 15.6963 8.57269 15.0951 8.25876C14.494 7.95152 13.6257 7.6376 12.5303 7.6376C11.8156 7.64427 10.9941 7.77118 10.0857 8.12518C8.40256 8.77974 7.37396 9.81502 6.75947 10.8971C6.14499 11.9858 5.95129 13.1279 5.95129 13.9695C5.95129 14.1432 5.95796 14.3035 5.97132 14.4504C6.08487 15.5324 6.44555 16.167 6.77283 16.541C6.93313 16.7213 7.08675 16.8416 7.2003 16.915C7.26041 16.9484 7.30049 16.9751 7.33388 16.9885C7.34724 16.9974 7.35615 17.0019 7.3606 17.0019L7.36728 17.0085H7.37396L7.33388 17.102L7.36728 17.0085H7.37396L7.33388 17.102L7.36728 17.0085L7.30049 17.1755L7.1669 17.0486L16.0436 8.64616L16.1772 8.77306L16.3108 8.89997L7.34724 17.3893L7.22702 17.3425C7.20698 17.3358 6.85298 17.2022 6.47895 16.7748C6.10491 16.3473 5.70416 15.6326 5.59061 14.4838C5.57725 14.3279 5.57057 14.1565 5.57057 13.9695C5.57057 13.0745 5.77095 11.8789 6.41883 10.7301C7.07339 9.57457 8.17546 8.4725 9.94546 7.78454C10.8939 7.41718 11.7622 7.27692 12.5303 7.27692C13.7259 7.27692 14.6677 7.61756 15.3089 7.9582C15.9568 8.29884 16.3041 8.63948 16.3174 8.64616L16.4443 8.77306L16.3108 8.89997L16.1772 8.77306Z" fill="#050505"/>
<path d="M18.5547 40.506C24.6528 42.9305 31.1316 42.7368 36.2947 40.4592C38.6257 39.4373 40.6829 37.9879 42.3193 36.1711C43.408 34.9622 44.3097 33.5863 44.9776 32.0634C47.3554 26.6666 46.2801 20.6286 42.6934 15.7595C41.1505 13.6622 39.1333 11.7853 36.7355 10.2691C35.5065 9.49436 34.1707 8.81308 32.748 8.25202C31.8263 7.87799 30.8912 7.57074 29.9494 7.32361C25.5745 6.16143 21.1328 6.27497 17.2389 7.46387C12.3497 8.9667 8.30875 12.166 6.31835 16.6946C2.39765 25.6046 7.8746 36.2647 18.5547 40.506Z" fill="#FEFEFE"/>
<path d="M18.5549 40.506C20.5988 41.3209 22.6894 41.8419 24.7599 42.0823C25.3299 42.1491 25.8954 42.1959 26.4564 42.2226C28.2197 42.3027 29.9497 42.1892 31.6061 41.8886C33.2492 41.5881 34.8255 41.1072 36.2949 40.4593C32.1939 40.9602 20.4117 41.528 15.5426 32.3841C10.974 23.8013 12.4969 13.7892 21.5873 9.45437C20.0911 8.40573 18.5282 7.69105 16.9252 7.56415C16.618 7.66656 16.3129 7.77343 16.0101 7.88475C15.5292 8.06732 15.0595 8.26547 14.6008 8.4792C14.0264 8.75305 13.472 9.04694 12.931 9.36086C10.0189 11.1041 7.68784 13.5821 6.3186 16.6946C2.3979 25.6047 7.87486 36.2647 18.5549 40.506Z" fill="#CBCBCB"/>
<path d="M18.5553 40.506C20.5991 41.3208 22.6897 41.8418 24.7603 42.0823C25.3302 42.149 25.8957 42.1958 26.4568 42.2225C28.2201 42.3027 29.95 42.1891 31.6064 41.8886C27.5254 42.3294 18.9894 40.8065 13.1718 33.9937C6.73305 26.4395 10.0459 19.246 11.1079 17.5228C12.1699 15.7995 11.669 15.1049 10.794 14.7442C9.91235 14.3902 10.0994 12.2195 12.6108 9.91515C12.8579 9.68806 12.9447 9.50104 12.9314 9.36078C10.0192 11.1041 7.68817 13.582 6.31894 16.6946C2.39824 25.6046 7.87519 36.2647 18.5553 40.506Z" fill="#050505"/>
<path d="M18.5548 40.5061C20.5986 41.3209 22.6892 41.8419 24.7598 42.0823C24.4881 41.9977 24.1809 41.9131 23.838 41.8285C14.5406 39.5242 5.45683 31.6962 6.01121 22.185C6.60566 12.0526 16.0233 7.88477 16.0233 7.88477H16.01C11.6752 9.52117 8.14188 12.5535 6.31845 16.6946C2.39775 25.6047 7.87471 36.2648 18.5548 40.5061Z" fill="#FEFEFE"/>
<path d="M17.9141 11.7987C18.9561 10.897 20.1316 10.1756 21.3005 9.59455C21.02 9.18044 20.7461 8.91327 20.7461 8.91327C21.5409 9.31402 22.5361 10.1489 22.5361 10.1489C20.4589 11.5048 18.228 13.4284 16.6918 16.0333C13.0116 22.2784 13.6862 31.3154 20.0849 37.6673C20.0849 37.6673 15.7434 35.2695 13.6795 28.263C11.6223 21.2631 13.7263 15.4121 17.9141 11.7987Z" fill="#737374"/>
<path d="M14.7809 27.3947C14.7809 27.3947 14.5471 28.8574 14.0863 29.6322L14.6273 28.8975L14.8811 28.2429L14.9746 27.9757" fill="#FEFEFE"/>
<path d="M13.2447 19.7469C13.2447 19.7469 14.3467 21.5436 14.6072 23.4405L15.0146 23.1266C15.0146 23.1266 14.7876 22.118 14.5137 21.5436C14.2465 20.9692 13.9393 20.5417 13.9393 20.5417" fill="#FEFEFE"/>
<path d="M12.0291 31.3019C12.0291 31.3019 16.0299 39.4172 29.8626 39.7979C34.685 39.9315 38.8862 38.3218 42.3193 36.1711C43.408 34.9621 44.3097 33.5862 44.9776 32.0634C47.3554 26.6666 46.2801 20.6285 42.6934 15.7594C41.598 16.8147 38.3919 19.1992 31.6125 19.3395C24.8665 19.4797 17.4793 15.5457 17.4793 15.5457C17.4793 15.5457 14.3267 16.0199 12.0291 18.5313C12.0291 18.5313 15.6292 20.7621 15.2752 26.3192C15.0214 30.4403 12.0291 31.3019 12.0291 31.3019Z" fill="#FBE02C"/>
<path fillRule="evenodd" clipRule="evenodd" d="M14.3002 16.7346C13.8727 17.703 13.5588 18.7183 13.3517 19.7669C12.6504 18.9187 12.0293 18.5313 12.0293 18.5313C12.7439 17.7498 13.5454 17.1687 14.3002 16.7346ZM12.0293 31.3019C12.0293 31.3019 13.3117 30.9346 14.2668 29.5253C14.6208 30.4871 15.0416 31.4422 15.5425 32.384C17.1255 35.3562 19.4365 37.2999 21.9746 38.5555C14.4405 36.1844 12.0293 31.3019 12.0293 31.3019Z" fill="#E88F30"/>
<path d="M14.8742 28.3231C15.6089 31.6494 17.3054 34.9088 20.084 37.6673C20.084 37.6673 16.3369 35.5968 14.1528 29.6857C14.4267 29.3116 14.6805 28.8641 14.8742 28.3231Z" fill="#9E5825"/>
<path d="M15.2422 28.6237C15.2422 28.6237 14.7613 29.3784 14.1802 29.7725L14.5876 28.9109L14.9149 28.1895" fill="#FBE02C"/>
<path d="M16.9189 15.6659C16.8388 15.7861 16.7631 15.9086 16.6919 16.0333C15.6365 17.8166 14.9419 19.827 14.6347 21.9377C14.2339 20.9358 13.7062 20.1744 13.2387 19.6267C13.4524 18.6381 13.7664 17.7031 14.1604 16.8147C15.2625 16.1602 16.3045 15.8262 16.9189 15.6659Z" fill="#9E5825"/>
<path d="M14.093 16.9484C14.093 16.9484 15.5557 16.3473 17.1387 16.2004L17.1186 15.6193C17.1186 15.6193 16.0566 15.9532 15.5691 16.1402C15.0882 16.3273 14.5605 16.541 14.5605 16.541" fill="#FBE02C"/>
<path d="M12.0293 31.3021L12.1429 31.2553V31.262C12.1963 31.3689 13.245 33.386 15.9634 35.4165C18.6818 37.447 23.0834 39.4975 29.8695 39.6845C30.0521 39.689 30.2347 39.6912 30.4172 39.6912C34.9791 39.6912 38.9666 38.1349 42.2528 36.0711L42.3196 36.1712L42.2261 36.0978C43.3081 34.8955 44.2031 33.533 44.871 32.0168C45.726 30.0798 46.1267 28.056 46.1267 26.0322C46.1267 22.4722 44.871 18.9121 42.5934 15.8264L42.6936 15.7596L42.7805 15.8397C41.665 16.9151 38.4256 19.3129 31.6128 19.4532C31.4926 19.4576 31.3723 19.4598 31.2521 19.4598C27.9058 19.4598 24.4527 18.5047 21.8278 17.5496C19.2095 16.5945 17.4195 15.646 17.4195 15.646L17.4796 15.5458L17.4929 15.6527L17.4863 15.6594C17.3994 15.6727 16.6046 15.8063 15.5626 16.2405C14.514 16.6746 13.2182 17.4093 12.1229 18.6116L12.0293 18.5314L12.0961 18.4379C12.1095 18.4446 12.9377 18.9589 13.7659 20.1077C14.5942 21.2566 15.4224 23.0399 15.4224 25.5646C15.4224 25.8096 15.4135 26.0634 15.3957 26.3261C15.2688 28.41 14.4405 29.6924 13.639 30.4405C12.8442 31.1885 12.0761 31.409 12.0694 31.409L12.0293 31.3021L11.9959 31.1952C12.0293 31.1819 12.7641 30.9615 13.5121 30.2401C14.2602 29.5254 15.035 28.3165 15.1619 26.3127C15.1753 26.0545 15.1819 25.8051 15.1819 25.5646C15.1819 23.0867 14.3737 21.3567 13.5656 20.2346C13.1648 19.6803 12.7641 19.2728 12.4635 19.0123C12.3099 18.8788 12.1896 18.7852 12.1028 18.7185C12.0583 18.6873 12.0249 18.665 12.0026 18.6517C11.9893 18.6428 11.9804 18.6361 11.9759 18.6316H11.9692L11.849 18.5582L11.9425 18.458C13.1047 17.1822 14.4806 16.4275 15.5693 15.9933C16.658 15.5525 17.4529 15.4323 17.4595 15.4323L17.4996 15.4256L17.533 15.4456C17.533 15.4456 17.5397 15.4479 17.5531 15.4523C17.7668 15.5659 19.5902 16.5076 22.1617 17.4294C24.7332 18.3444 28.0595 19.2328 31.2521 19.2328C31.3723 19.2328 31.4903 19.2305 31.6061 19.2261C38.3655 19.0858 41.5314 16.7214 42.6068 15.6794L42.707 15.5792L42.7871 15.6928C45.0915 18.8186 46.3672 22.4187 46.3672 26.0322C46.3672 28.0827 45.9598 30.1399 45.0915 32.1036C44.4169 33.6398 43.5085 35.0224 42.4064 36.2447L42.3997 36.2581L42.3864 36.2648C39.0735 38.342 35.0326 39.9183 30.4172 39.9183C30.2302 39.9183 30.0454 39.9161 29.8628 39.9116C22.9165 39.7246 18.428 37.5872 15.6829 35.4966C12.9377 33.406 11.9292 31.3622 11.9225 31.3489L11.8624 31.2353L11.9959 31.1952L12.0293 31.3021Z" fill="#050505"/>
<path d="M17.239 7.46394C19.8439 7.57081 22.2818 8.80646 25.2942 11.6986C29.5622 15.8063 34.2577 15.7595 36.1078 13.8359C36.9761 12.9275 37.1832 11.3446 36.7356 10.2692C35.5067 9.49442 34.1708 8.81314 32.7482 8.25209C27.4983 6.1615 21.9679 6.01455 17.239 7.46394Z" fill="#FBE02C"/>
<path d="M22.1951 9.1738C25.1607 7.85799 27.8457 7.45056 27.8457 7.45056L28.0127 7.47728C28.0127 7.47728 26.2494 8.01161 24.0118 9.26063C24.1855 9.40089 24.5863 9.74821 25.0137 10.2491C25.5815 10.9238 25.842 11.5115 26.5633 12.1527C27.2913 12.7939 25.7885 11.7787 25.7885 11.7787L24.613 10.5297L23.4775 9.58123L23.5243 9.53447C23.3818 9.61908 23.2371 9.70813 23.0901 9.80164C22.7873 9.57455 22.489 9.36527 22.1951 9.1738Z" fill="#9E5825"/>
<path d="M18.4217 7.14331C20.726 7.45055 22.9635 8.71293 25.6552 11.2978C29.8097 15.292 34.3583 15.3587 36.3086 13.5954C36.2485 13.6756 36.1817 13.7624 36.1082 13.8359C34.2581 15.7595 29.5626 15.8063 25.2946 11.6985C22.2822 8.80644 19.8443 7.57078 17.2394 7.46391C17.6268 7.34814 18.0209 7.24127 18.4217 7.14331Z" fill="#E88F30"/>
<path d="M17.7797 7.31029C17.8732 7.28358 17.9689 7.25686 18.0669 7.23014C18.1159 7.21679 18.1649 7.20343 18.2138 7.19007C18.3073 7.16781 18.4031 7.14554 18.501 7.12328C18.5456 7.10992 18.5923 7.09879 18.6413 7.08988C18.7482 7.06316 18.855 7.03868 18.9619 7.01641C18.9975 7.00751 19.0332 7.00082 19.0688 6.99637C19.2113 6.9652 19.356 6.93626 19.5029 6.90954C19.5207 6.90509 19.5408 6.90064 19.563 6.89618C19.6877 6.87392 19.8102 6.85165 19.9304 6.82939C19.9749 6.82048 20.0217 6.81381 20.0707 6.80935C20.1686 6.79154 20.2688 6.77373 20.3712 6.75592C20.4202 6.75147 20.4692 6.74479 20.5182 6.73588C20.6206 6.72253 20.723 6.70916 20.8254 6.69581C20.8699 6.69135 20.9167 6.68468 20.9657 6.67577C21.0859 6.66241 21.2084 6.64905 21.333 6.6357C21.3553 6.63124 21.3798 6.62901 21.4065 6.62901C21.5534 6.6112 21.7026 6.59785 21.854 6.58894C21.8896 6.58449 21.9253 6.58003 21.9609 6.57558C22.0722 6.56668 22.1835 6.56 22.2948 6.55554C22.3483 6.55109 22.3995 6.54887 22.4485 6.54887C22.5509 6.53996 22.6511 6.53328 22.749 6.52883C22.8025 6.52883 22.8559 6.5266 22.9093 6.52215C23.0162 6.52215 23.1208 6.51992 23.2233 6.51547C23.2722 6.51547 23.319 6.51324 23.3635 6.50879C23.5105 6.50879 23.6574 6.50879 23.8043 6.50879H23.8177C23.9646 6.50879 24.1138 6.51102 24.2652 6.51547C24.3186 6.51547 24.3698 6.51547 24.4188 6.51547C24.5212 6.51992 24.6214 6.52437 24.7194 6.52883C24.7817 6.53328 24.8418 6.53551 24.8997 6.53551C24.9932 6.53996 25.089 6.54664 25.1869 6.55554C25.2448 6.55554 25.3027 6.55777 25.3606 6.56222C25.463 6.57113 25.5654 6.58003 25.6678 6.58894C25.7168 6.59339 25.768 6.59562 25.8215 6.59562C25.9684 6.60898 26.1154 6.62456 26.2623 6.64237C26.3068 6.64683 26.3513 6.65128 26.3959 6.65573C26.5027 6.66909 26.6118 6.68245 26.7232 6.69581C26.7855 6.70471 26.8478 6.71362 26.9102 6.72252C26.9992 6.73143 27.0883 6.74256 27.1773 6.75592C27.2441 6.76483 27.3132 6.77596 27.3844 6.78932C27.469 6.80268 27.5558 6.81603 27.6449 6.82939C27.7117 6.8383 27.7785 6.84943 27.8453 6.86279C27.9388 6.8806 28.0301 6.89841 28.1191 6.91622C28.1815 6.92513 28.2438 6.93626 28.3061 6.94962C28.4486 6.97634 28.5911 7.00528 28.7336 7.03645C28.8048 7.04981 28.8761 7.06539 28.9473 7.0832C29.0275 7.10102 29.1076 7.11883 29.1878 7.13664C29.2635 7.15445 29.3414 7.17226 29.4216 7.19007C29.4928 7.20788 29.564 7.22569 29.6353 7.2435C29.7199 7.26577 29.8023 7.28803 29.8824 7.31029C29.9047 7.31475 29.927 7.3192 29.9492 7.32365C26.9503 7.56411 24.3721 8.20531 22.1946 9.1738C20.4848 8.05837 18.8951 7.53071 17.2387 7.46392C17.3723 7.42384 17.5081 7.38377 17.6461 7.34369C17.6906 7.33479 17.7352 7.32365 17.7797 7.31029Z" fill="#E88F30"/>
<path d="M17.2391 7.35034C18.5615 7.40378 19.844 7.74441 21.1731 8.43905C22.4956 9.12701 23.8648 10.169 25.381 11.6184C27.8791 14.0229 30.5173 14.9847 32.6213 14.9847C34.084 14.9847 35.2863 14.5171 36.021 13.7557C36.562 13.188 36.8426 12.3264 36.8426 11.5048C36.8426 11.0773 36.7691 10.6632 36.6221 10.3092L36.8426 10.2291C37.0029 10.6098 37.083 11.0506 37.083 11.5048C37.083 12.3731 36.7958 13.2882 36.1947 13.9093C35.4065 14.7309 34.1375 15.2118 32.6213 15.2118C30.4372 15.2118 27.7455 14.2166 25.2074 11.7787C23.7112 10.336 22.3553 9.31403 21.0529 8.63275C19.7571 7.95815 18.5148 7.63087 17.2324 7.57743L17.2391 7.35034Z" fill="#050505"/>
<path d="M18.5547 40.506L18.6282 40.339C21.5737 41.5145 24.6128 42.0689 27.5383 42.0689C33.3358 42.0689 38.7126 39.8982 42.1724 36.0509C43.2478 34.8554 44.1428 33.4995 44.804 31.99C45.6523 30.0597 46.0597 28.0492 46.0597 26.0321C46.0597 22.4855 44.804 18.9388 42.5331 15.8664C41.0035 13.7891 39.0131 11.9256 36.6287 10.4228C35.4064 9.65468 34.0906 8.98008 32.6746 8.41903C29.729 7.24349 26.69 6.68911 23.7578 6.68911C21.5136 6.68911 19.3295 7.01639 17.299 7.63756C12.4499 9.12702 8.46241 12.293 6.49872 16.7614C5.64378 18.6983 5.24303 20.7088 5.24303 22.7259C5.24303 29.886 10.3593 37.0528 18.6282 40.339L18.5547 40.506L18.4812 40.673C10.0788 37.3334 4.86231 30.053 4.86231 22.7259C4.86231 20.662 5.27643 18.5982 6.14472 16.6211C8.16185 12.0458 12.2428 8.80642 17.1788 7.29024C19.2493 6.65571 21.4735 6.32843 23.7578 6.32843C26.7434 6.32843 29.8292 6.88949 32.8215 8.07839C34.2575 8.6528 35.6001 9.33408 36.8357 10.1155C39.2603 11.6451 41.2908 13.542 42.847 15.6526C45.158 18.7852 46.4404 22.4053 46.4404 26.0321C46.4404 28.096 46.0263 30.1532 45.158 32.1302C44.4767 33.6731 43.5684 35.0624 42.4663 36.2847C38.9196 40.2254 33.436 42.4296 27.5383 42.4296C24.5593 42.4296 21.4735 41.8685 18.4812 40.673L18.5547 40.506Z" fill="#050505"/>
<path d="M42.5001 34.5347C42.5001 34.5347 45.105 31.6893 45.2319 26.7801C45.3655 21.8642 42.4133 17.6162 42.4133 17.6162C42.4133 17.6162 38.9401 20.6686 32.4212 20.4616C32.4212 20.4616 40.4162 20.8222 42.9276 24.7763C45.3789 28.657 42.5001 34.5347 42.5001 34.5347Z" fill="#FEFEFE"/>
<path d="M3.51305 24.0084C4.13422 24.8032 4.75539 25.5112 5.36987 26.1123C6.39847 27.1409 7.40704 27.8823 8.31541 28.3365C9.31729 28.8374 10.2056 28.9777 10.8936 28.7239C11.7686 28.41 12.2695 27.5016 12.4832 26.4062C12.6769 25.3976 12.6302 24.2288 12.3897 23.2336C12.1693 22.2918 10.9337 21.31 9.3774 20.4817C8.60929 20.0743 7.76103 19.7003 6.91945 19.393C4.70863 18.5782 2.53121 18.1908 1.86997 18.6516C1.62952 18.8186 1.42914 19.039 1.33563 19.3396C1.10186 20.1077 1.50929 21.4302 3.51305 24.0084Z" fill="#FEFEFE"/>
<path d="M3.51321 24.0084C4.13438 24.8032 4.75555 25.5112 5.37003 26.1123C6.39863 27.1342 7.4072 27.8823 8.31557 28.3365C9.31745 28.8374 10.2058 28.971 10.8937 28.7239C11.7687 28.41 12.2697 27.5016 12.4834 26.4062L12.4033 26.3595C12.4033 26.3595 11.909 27.4348 11.4882 27.4014C11.3947 27.3947 11.3546 27.2278 11.3279 26.9539C11.2477 25.952 11.4348 23.5475 10.4596 22.726C10.0856 22.412 9.31077 21.9111 8.35564 21.3834C8.20425 21.2988 8.05063 21.2142 7.89478 21.1296C7.78791 21.0717 7.67659 21.0139 7.56082 20.956C7.52074 21.0049 7.47844 21.0539 7.43391 21.1029C7.32037 21.2565 7.23354 21.4569 7.16674 21.6974C6.81275 23.0065 7.16675 25.5579 8.06176 28.0159C7.15339 27.5617 6.1515 26.8136 5.11622 25.7917C4.70879 24.329 4.14774 21.9712 4.40823 20.7022C4.42827 20.5753 4.46166 20.4684 4.49506 20.3682C4.58189 20.1277 4.72215 19.9474 4.94924 19.8205C4.02083 19.4732 3.19261 19.2928 2.49129 19.2862C2.14397 19.2795 1.63635 19.4264 1.70983 20.1411C1.70983 20.1611 1.42262 19.707 1.40258 19.7136C1.37587 19.727 1.36251 19.3329 1.33579 19.3396C1.10202 20.1077 1.50945 21.4302 3.51321 24.0084Z" fill="#CBCBCB"/>
<path d="M10.126 28.5568C10.126 28.5568 8.85693 28.0025 8.46953 27.4481C8.46953 27.4481 9.47141 27.8755 9.65843 27.2677C9.83877 26.6666 9.29775 24.6562 8.72334 24.1753C7.78825 23.3938 3.79408 20.8757 2.7922 20.5685C1.79032 20.2679 2.25786 21.5103 2.52503 22.0312C2.7922 22.5522 4.30838 24.8432 4.30838 24.8432L6.1986 26.5397L7.66803 27.5883L8.58976 28.2563" fill="#050505"/>
<path d="M1.80999 20.475C1.80999 20.475 1.49607 19.5533 1.80331 19.3329C1.99701 19.1926 2.49795 19.2127 2.83859 19.2461C3.46643 19.3329 4.18779 19.5333 4.94922 19.8205C4.72213 19.9474 4.58186 20.1277 4.49503 20.3682C3.94066 20.1077 3.39964 19.8806 2.95214 19.7203C1.32909 19.1526 1.7432 20.2747 1.88346 20.6754C1.93689 20.829 1.8701 20.6821 1.76991 20.4416L1.80999 20.475Z" fill="#737374"/>
<path d="M8.01524 22.0245C8.03527 22.1781 9.73179 23.0197 10.3463 23.8613C10.9007 24.616 11.3281 26.9671 11.3281 26.9671V26.9538C11.248 25.9519 11.435 23.5474 10.4598 22.7258C10.0858 22.4119 9.311 21.911 8.35587 21.3833C8.1221 21.5369 8.00188 21.8776 8.01524 22.0245Z" fill="#737374"/>
<path d="M1.3362 19.3396C1.42971 19.0391 1.63008 18.8186 1.87054 18.6517C1.88389 18.6427 1.89948 18.6338 1.91729 18.6249C1.8171 18.7385 1.73695 18.8787 1.6902 19.0391C1.45642 19.8005 1.86385 21.1296 3.86762 23.7078C4.48879 24.5026 5.10995 25.204 5.71776 25.8118C6.75304 26.8337 7.75493 27.5818 8.6633 28.036C9.67186 28.5302 10.5602 28.6705 11.2482 28.4233C11.4018 28.3699 11.5354 28.2964 11.6689 28.2096C11.4485 28.4367 11.1947 28.617 10.8942 28.7239C10.2062 28.9777 9.31786 28.8375 8.31598 28.3365C7.40761 27.8823 6.39904 27.1409 5.37044 26.1123C4.75595 25.5112 4.13479 24.8032 3.51362 24.0084C1.50986 21.4302 1.10243 20.1077 1.3362 19.3396Z" fill="#FEFEFE"/>
<path d="M9.37109 20.6687C9.37109 20.6687 8.44936 21.016 7.97514 21.9311C7.50091 22.8461 7.78144 21.2565 7.78144 21.2565L8.5028 20.7489L9.05049 20.5418" fill="#CBCBCB"/>
<path d="M5.3704 26.1123C6.399 27.1409 7.40756 27.8823 8.31594 28.3365C7.25394 25.4243 6.9467 22.3853 7.68809 21.4302C8.14895 20.8357 8.84359 20.5819 9.37793 20.4817C8.60982 20.0743 7.76156 19.7002 6.91998 19.393C6.25206 19.5399 5.55074 19.8338 5.0498 20.4082C4.23493 21.3433 4.82938 24.182 5.3704 26.1123Z" fill="#FBE02C"/>
<path d="M5.04975 20.4083C5.18334 20.2546 5.33028 20.1277 5.49058 20.0075C6.1585 20.2747 6.82642 20.5886 7.46095 20.9025C7.44314 20.9203 7.42755 20.9404 7.41419 20.9626C6.6728 21.9178 7.10695 25.2106 8.16895 28.1228C7.32068 27.6953 6.25869 26.7669 5.29688 25.8385C4.7759 23.9215 4.26828 21.3033 5.04975 20.4083Z" fill="#E88F30"/>
<path d="M8.08887 27.8957L7.66808 27.5884L6.19865 26.5398L5.25688 25.6915C5.15001 24.9368 4.96299 22.9397 5.06986 21.7842C5.83797 22.2317 6.14522 22.4788 6.89329 22.9664C6.9534 24.3423 7.49442 26.1925 8.08887 27.8957Z" fill="#050505"/>
<path d="M5.04974 20.4083C5.18332 20.2546 5.33027 20.1277 5.49057 20.0075C6.15849 20.2747 6.82641 20.5886 7.46094 20.9025C7.44313 20.9203 7.42754 20.9404 7.41418 20.9626C7.2806 21.1296 7.18709 21.3767 7.12698 21.6773C6.65275 21.4235 5.81117 20.9894 4.93619 20.5752C4.97181 20.5129 5.00966 20.4572 5.04974 20.4083Z" fill="#9E5825"/>
<path d="M5.29688 25.8384C5.239 25.6336 5.18334 25.4198 5.1299 25.1972C5.32583 25.4109 5.52175 25.6158 5.71767 25.8117C6.5125 26.5932 7.28729 27.2143 8.01532 27.6685C8.06431 27.8199 8.11551 27.9713 8.16895 28.1227C7.32068 27.6952 6.25869 26.7668 5.29688 25.8384Z" fill="#FEFEFE"/>
<path d="M5.37058 26.1123L5.45741 26.0388C6.47933 27.0541 7.47453 27.7954 8.36955 28.2363L8.31611 28.3365L8.20257 28.3765C7.53465 26.5398 7.16061 24.6562 7.16061 23.2536C7.16061 22.8395 7.19401 22.4654 7.2608 22.1448C7.33427 21.8242 7.44114 21.5571 7.58808 21.3634C7.83521 21.0494 8.13578 20.8223 8.4497 20.6687C8.76362 20.5151 9.07755 20.4216 9.35139 20.3682L9.37811 20.4817L9.318 20.5819C8.55657 20.1745 7.71498 19.8071 6.8734 19.4999L6.92016 19.393L6.94688 19.5065C6.29231 19.6468 5.62439 19.934 5.14349 20.4817C5.01658 20.6286 4.92307 20.8357 4.85628 21.0962C4.79617 21.3567 4.76945 21.6639 4.76945 21.9979C4.76945 23.2269 5.13681 24.8432 5.48413 26.0856L5.37058 26.1123L5.25704 26.1457C4.90304 24.89 4.529 23.2669 4.529 21.9979C4.529 21.6506 4.55572 21.33 4.62251 21.0428C4.69598 20.7622 4.79617 20.5218 4.96315 20.3348C5.48413 19.7403 6.21216 19.4331 6.89344 19.2794L6.92684 19.2728L6.96023 19.2861C7.8085 19.6 8.66343 19.9741 9.43154 20.3815L9.71875 20.5351L9.39815 20.5953C9.14434 20.642 8.84377 20.7288 8.56325 20.8691C8.27604 21.016 8.00219 21.2164 7.78178 21.4969C7.66155 21.6572 7.56136 21.891 7.50125 22.1916C7.43446 22.4921 7.40106 22.8528 7.40106 23.2536C7.40106 24.6161 7.76842 26.4863 8.42966 28.2964L8.52985 28.5702L8.26268 28.4366C7.33427 27.9758 6.31903 27.221 5.28375 26.1924L5.26371 26.1724L5.25704 26.1457L5.37058 26.1123Z" fill="#050505"/>
<path d="M3.51374 24.0083L3.66736 23.9015C4.28185 24.6896 4.90302 25.3909 5.51083 25.992C6.52607 27.0006 7.52127 27.7353 8.40293 28.1761C9.06417 28.5034 9.6653 28.6637 10.1662 28.6637C10.4067 28.6637 10.6271 28.6281 10.8275 28.5569C11.1013 28.4567 11.3284 28.2964 11.5288 28.0826C11.8294 27.762 12.0565 27.3079 12.1967 26.7869C12.3437 26.2659 12.4105 25.6781 12.4105 25.0837C12.4105 24.4625 12.337 23.8347 12.2034 23.2736C12.1566 23.0665 12.0498 22.8528 11.8895 22.6257C11.649 22.2918 11.2817 21.9444 10.8408 21.6105C10.3933 21.2765 9.859 20.9492 9.28459 20.642C8.52316 20.2346 7.68157 19.8672 6.84667 19.56C6.07856 19.2794 5.30377 19.0457 4.60914 18.8854C3.90782 18.7251 3.27997 18.6382 2.79907 18.6382C2.60537 18.6382 2.43171 18.6516 2.29145 18.6783C2.15118 18.7117 2.051 18.7518 1.9842 18.7985C1.83058 18.9054 1.70368 19.0256 1.61685 19.1792C1.52334 19.3329 1.4699 19.5132 1.4699 19.7603C1.4699 20.121 1.59681 20.622 1.93745 21.2966C2.28477 21.9778 2.83914 22.8261 3.66736 23.9015L3.51374 24.0083L3.36012 24.1152C2.51854 23.0332 1.95081 22.1649 1.59681 21.4569C1.23613 20.7489 1.08919 20.2078 1.08919 19.7603C1.08251 19.4598 1.15598 19.2126 1.28289 19.0056C1.40311 18.7919 1.57009 18.6316 1.75711 18.5046C1.88401 18.4178 2.03764 18.3644 2.2113 18.3243C2.38495 18.2909 2.58533 18.2709 2.79907 18.2709C3.32672 18.2709 3.98129 18.3644 4.69596 18.5314C5.41732 18.6983 6.19879 18.9321 6.98693 19.226C7.83519 19.5332 8.69013 19.9073 9.4716 20.3214C10.2598 20.7422 10.9677 21.203 11.5154 21.684C11.7893 21.9244 12.0231 22.1715 12.2034 22.4187C12.3837 22.6725 12.5173 22.9263 12.5774 23.1935C12.7177 23.7879 12.7979 24.4358 12.7979 25.0837C12.7979 25.9119 12.6709 26.7334 12.3837 27.4214C12.2368 27.762 12.0565 28.0693 11.816 28.3231C11.5822 28.5769 11.3017 28.7773 10.9611 28.8975C10.7139 28.9843 10.4468 29.0311 10.1662 29.0311C9.57847 29.0311 8.92391 28.8441 8.22927 28.4968C7.29418 28.0359 6.27226 27.2745 5.2303 26.2392C4.61581 25.6314 3.98797 24.9167 3.36012 24.1152L3.51374 24.0083Z" fill="#050505"/>
<path d="M2.5782 5.21301L4.62872 6.93625L4.08103 8.69288L6.45215 11.1709L6.27849 11.3245L3.81386 8.74632L4.35488 7.00972L2.42458 5.38667L2.5782 5.21301Z" fill="#050505"/>
<path d="M21.7207 29.9394C21.7207 29.9394 23.2636 31.6359 25.8284 32.3038C25.9041 32.3216 25.982 32.3394 26.0622 32.3572C26.6299 32.4908 27.2444 32.571 27.899 32.571C27.899 32.571 29.4619 30.968 29.4619 27.4681C29.4619 25.0769 28.3465 23.3737 26.9772 22.6991L26.9706 22.6924C26.2759 22.3518 25.5078 22.2716 24.7931 22.4987C22.6558 23.1733 21.6873 25.4175 21.7207 29.9394Z" fill="#FEFEFE"/>
<path fillRule="evenodd" clipRule="evenodd" d="M27.905 32.7113H27.9652L28.0052 32.6646C28.072 32.5978 29.6016 30.9814 29.6016 27.4681C29.6016 24.7965 28.2791 23.1868 27.0434 22.5723C26.2953 22.2049 25.4805 22.1315 24.7458 22.3652C22.5216 23.0732 21.5397 25.4109 21.5798 29.9395V29.9862L21.6132 30.0263C21.68 30.0998 23.2162 31.7629 25.7944 32.4375C25.8701 32.4553 25.948 32.4731 26.0282 32.4909C26.6427 32.6379 27.2772 32.7113 27.905 32.7113ZM25.6274 22.5055C26.0549 22.5055 26.4824 22.6057 26.9032 22.8127C28.072 23.3938 29.3144 24.9167 29.3144 27.4681C29.3144 30.5673 28.072 32.157 27.8383 32.4375C27.2572 32.4308 26.6694 32.3573 26.095 32.2304C26.0193 32.2126 25.9436 32.1926 25.8679 32.1703C23.5836 31.5759 22.1075 30.1332 21.867 29.886C21.8336 25.5245 22.7554 23.287 24.8393 22.6257C25.0931 22.5456 25.3603 22.5055 25.6274 22.5055Z" fill="#050505"/>
<path d="M24.0651 27.7887C24.0651 29.7391 24.7798 31.4289 25.8284 32.3039C25.9041 32.3217 25.982 32.3395 26.0622 32.3573C26.6299 32.4909 27.2444 32.571 27.899 32.571C27.899 32.571 29.4619 30.968 29.4619 27.4681C29.4619 25.077 28.3465 23.3738 26.9772 22.6992C25.3275 23.0532 24.0651 25.1972 24.0651 27.7887Z" fill="#3E88C7"/>
<path d="M25.7545 27.762C25.7545 29.4852 26.6095 30.8878 27.6581 30.8878C28.7134 30.8878 29.5684 29.4852 29.5684 27.762C29.5684 26.0387 28.7134 24.6428 27.6581 24.6428C26.6095 24.6428 25.7545 26.0387 25.7545 27.762Z" fill="#050505"/>
<path d="M24.0651 27.7887C24.0651 29.7391 24.7798 31.4289 25.8284 32.3039C25.9041 32.3217 25.982 32.3395 26.0622 32.3573C26.6299 32.4909 27.2444 32.571 27.899 32.571C27.899 32.571 29.4619 30.968 29.4619 27.4681C29.4619 25.077 28.3465 23.3738 26.9772 22.6992C25.3275 23.0532 24.0651 25.1972 24.0651 27.7887Z" fill="url(#paint0_linear_316_2)"/>
<path fillRule="evenodd" clipRule="evenodd" d="M27.905 32.7113H27.9652L28.0052 32.6646C28.072 32.5978 29.6016 30.9814 29.6016 27.4681C29.6016 24.7965 28.2791 23.1868 27.0434 22.5723L26.9967 22.5522L26.9432 22.5656C25.22 22.933 23.9175 25.1839 23.9175 27.7888C23.9175 29.7057 24.6189 31.4757 25.7343 32.4041L25.761 32.4308L25.7944 32.4375C25.8701 32.4553 25.948 32.4731 26.0282 32.4909C26.6427 32.6379 27.2772 32.7113 27.905 32.7113ZM26.9566 22.8395C28.1054 23.4339 29.3144 24.9501 29.3144 27.4681C29.3144 30.5673 28.072 32.157 27.8383 32.4375C27.2572 32.4308 26.6694 32.3573 26.095 32.2304C26.0282 32.2126 25.9636 32.197 25.9013 32.1837C24.8526 31.2953 24.2048 29.6189 24.2048 27.7888C24.2048 25.3308 25.387 23.2202 26.9566 22.8395Z" fill="#050505"/>
<path d="M37.2633 32.2104C37.2855 32.3306 37.3122 32.4508 37.3434 32.5711C37.3434 32.5711 37.5438 32.5577 37.8777 32.4976C38.3319 32.4174 39.0333 32.2505 39.7947 31.9098C39.8214 31.8965 39.8459 31.8853 39.8682 31.8764C40.6029 31.5358 41.391 31.0348 42.0656 30.2935C42.0656 30.2935 43.0341 23.8614 40.2622 23.2068C39.5075 23.0331 38.893 23.2469 38.3987 23.7411C38.323 23.8168 38.2518 23.897 38.185 23.9816C36.9093 25.598 36.6354 29.2315 37.2633 32.2104Z" fill="#FEFEFE"/>
<path fillRule="evenodd" clipRule="evenodd" d="M37.2298 32.718L37.35 32.7047C37.3634 32.7047 37.5638 32.6913 37.9044 32.6312C38.3653 32.551 39.08 32.3841 39.8547 32.0301C39.8726 32.0211 39.8926 32.0122 39.9149 32.0033L39.9349 31.9967C40.8165 31.5892 41.5646 31.0482 42.1724 30.3803L42.1991 30.3536L42.2058 30.3135C42.2459 30.0463 43.161 23.7545 40.2956 23.0799C39.5275 22.8929 38.8529 23.0866 38.2918 23.6476C38.2161 23.7278 38.1426 23.8124 38.0714 23.9014C36.6888 25.6514 36.5485 29.4986 37.1229 32.2371C37.1452 32.3573 37.1719 32.4798 37.2031 32.6045L37.2298 32.718ZM41.9253 30.2333C41.3509 30.8545 40.6429 31.3688 39.808 31.7495L39.7879 31.7562C39.7701 31.7651 39.7523 31.774 39.7345 31.7829C38.9798 32.1236 38.2918 32.2839 37.851 32.364C37.6773 32.3974 37.5437 32.4108 37.4569 32.4241C37.4391 32.344 37.4213 32.2638 37.4035 32.1837C36.7422 29.0311 37.1296 25.5445 38.2985 24.0684C38.3608 23.9838 38.4276 23.9059 38.4989 23.8347C38.9864 23.3538 39.5675 23.1868 40.2288 23.3404C42.7335 23.9348 41.9988 29.699 41.9253 30.2333Z" fill="#050505"/>
<path d="M37.263 32.2104C37.4567 32.344 37.6637 32.4375 37.8775 32.4976C38.3316 32.4175 39.033 32.2505 39.7944 31.9098C40.5825 31.1284 41.1035 29.7391 41.1035 28.1561C41.1035 25.7449 39.8946 23.7879 38.3984 23.7411C38.3227 23.8168 38.2515 23.897 38.1847 23.9816C36.909 25.598 36.6351 29.2315 37.263 32.2104Z" fill="#3E88C7"/>
<path d="M36.9089 28.156C36.9089 29.6388 37.657 30.8411 38.5854 30.8411C39.5138 30.8411 40.2686 29.6388 40.2686 28.156C40.2686 26.6666 39.5138 25.4643 38.5854 25.4643C37.657 25.4643 36.9089 26.6666 36.9089 28.156Z" fill="#050505"/>
<path d="M37.263 32.2104C37.4567 32.344 37.6637 32.4375 37.8775 32.4976C38.3316 32.4175 39.033 32.2505 39.7944 31.9098C40.5825 31.1284 41.1035 29.7391 41.1035 28.1561C41.1035 25.7449 39.8946 23.7879 38.3984 23.7411C38.3227 23.8168 38.2515 23.897 38.1847 23.9816C36.909 25.598 36.6351 29.2315 37.263 32.2104Z" fill="url(#paint1_linear_316_2)"/>
<path fillRule="evenodd" clipRule="evenodd" d="M37.8713 32.6377L37.9047 32.631C38.3656 32.5509 39.0802 32.3839 39.855 32.0299L39.8817 32.0232L39.8951 32.0032C40.7434 31.1683 41.251 29.7256 41.251 28.156C41.251 25.6513 39.9953 23.6542 38.399 23.6074H38.3388L38.2921 23.6475C38.2164 23.7277 38.1429 23.8123 38.0717 23.9013C36.6891 25.6513 36.5488 29.4985 37.1232 32.237L37.1299 32.2837L37.1767 32.3171C37.3904 32.4641 37.6108 32.5709 37.8379 32.631L37.8713 32.6377ZM39.7081 31.7961C38.9867 32.1167 38.3255 32.277 37.8847 32.3572C37.7199 32.3082 37.5551 32.2303 37.3904 32.1234C36.7492 28.9909 37.1366 25.5377 38.2988 24.0616C38.3522 23.9993 38.4056 23.9392 38.4591 23.8813C39.8483 23.9748 40.9638 25.8717 40.9638 28.1493C40.9638 29.6454 40.4962 31.008 39.7081 31.7961Z" fill="#050505"/>
<path d="M35.2256 36.5385C35.2122 36.5452 34.925 36.7188 34.4374 36.8925C33.9565 37.0661 33.2619 37.2398 32.447 37.2398C31.6255 37.2398 30.677 37.0661 29.6952 36.5452L29.929 36.1444C30.8373 36.6253 31.699 36.7856 32.447 36.7856C33.1884 36.7856 33.8229 36.6253 34.2705 36.465C34.4976 36.3849 34.6712 36.3047 34.7914 36.2513C34.8493 36.2201 34.8939 36.1956 34.925 36.1778C34.9384 36.1689 34.9495 36.1622 34.9584 36.1578H34.9651L35.2256 36.5385Z" fill="#050505"/>
<path d="M19.643 31.7428C20.4311 32.6111 21.4063 33.0386 21.8204 32.6913C22.2412 32.3506 21.9406 31.3754 21.1525 30.5071C20.3643 29.6388 19.3892 29.2114 18.9684 29.5587C18.5543 29.8993 18.8548 30.8745 19.643 31.7428Z" fill="#E88F30"/>
<path d="M42.4862 32.4107C42.8202 32.6111 43.4681 32.217 43.9289 31.529C44.3965 30.8411 44.5033 30.113 44.1761 29.9127C43.8421 29.7123 43.2009 30.1064 42.7333 30.7943C42.2658 31.489 42.1589 32.2103 42.4862 32.4107Z" fill="#E88F30"/>
<path d="M22.9294 21.0159L24.165 22.7458L23.771 22.9997L22.5353 21.2697" fill="#050505"/>
<path d="M21.52 22.412L22.9961 23.8814L22.6488 24.1953L21.1727 22.7259" fill="#050505"/>
<path d="M42.7266 22.7191L41.4575 24.0216L41.1102 23.7077L42.3792 22.4052" fill="#050505"/>
<path d="M43.4277 24.6962L41.9984 25.3174L41.798 24.9033L43.234 24.2821" fill="#050505"/>
<path d="M25.0999 25.6314C25.0999 26.2592 25.4673 26.7668 25.9148 26.7668C26.369 26.7668 26.7363 26.2592 26.7363 25.6314C26.7363 25.0035 26.369 24.4959 25.9148 24.4959C25.4673 24.4959 25.0999 25.0035 25.0999 25.6314Z" fill="#FEFEFE"/>
<path d="M39.5606 30.4002C39.5606 30.654 39.7075 30.8611 39.8946 30.8611C40.0749 30.8611 40.2285 30.654 40.2285 30.4002C40.2285 30.1464 40.0749 29.9393 39.8946 29.9393C39.7075 29.9393 39.5606 30.1464 39.5606 30.4002Z" fill="#FEFEFE"/>
<path d="M27.7321 30.7811C27.7321 31.0616 27.8991 31.2887 28.0994 31.2887C28.2998 31.2887 28.4668 31.0616 28.4668 30.7811C28.4668 30.5005 28.2998 30.2734 28.0994 30.2734C27.8991 30.2734 27.7321 30.5005 27.7321 30.7811Z" fill="#FEFEFE"/>
<path d="M37.677 26.0521C37.677 26.5664 37.9776 26.9805 38.3516 26.9805C38.719 26.9805 39.0195 26.5664 39.0195 26.0521C39.0195 25.5378 38.719 25.1237 38.3516 25.1237C37.9776 25.1237 37.677 25.5378 37.677 26.0521Z" fill="#FEFEFE"/>
<path d="M36.4215 10.7434C36.4215 10.7434 36.5484 11.3178 36.3947 12.1594C36.3947 12.1594 34.578 9.86844 29.4283 7.69769C29.4283 7.69769 34.0971 9.11369 36.4215 10.7434Z" fill="#FEFEFE"/>
<path d="M31.1922 10.523C31.1922 12.6603 33.0156 14.3969 35.2665 14.3969C37.5174 14.3969 39.3408 12.6603 39.3408 10.523C39.3408 8.38564 37.5174 6.64905 35.2665 6.64905C33.0156 6.64905 31.1922 8.38564 31.1922 10.523Z" fill="url(#paint2_radial_316_2)"/>
<path d="M35.7538 20.6554C35.7538 23.6009 38.2652 25.9921 41.3711 25.9921C44.4702 25.9921 46.9883 23.6009 46.9883 20.6554C46.9883 17.7032 44.4702 15.312 41.3711 15.312C38.2652 15.312 35.7538 17.7032 35.7538 20.6554Z" fill="url(#paint3_radial_316_2)"/>
<path d="M5.27705 5.35329C5.27705 8.03833 7.56802 10.2158 10.3933 10.2158C13.212 10.2158 15.5029 8.03833 15.5029 5.35329C15.5029 2.66824 13.212 0.497498 10.3933 0.497498C7.56802 0.497498 5.27705 2.66824 5.27705 5.35329Z" fill="url(#paint4_radial_316_2)"/>
<path d="M113.554 26.2937C113.185 27.7909 112.611 29.2881 111.75 30.7443C106.643 39.4405 93.065 38.1279 89.5988 30.4367C88.922 28.96 88.4708 27.4832 88.1631 26.0065C86.9531 20.2638 88.4298 14.1108 90.0706 10.6857L97.3311 12.0598C97.3311 12.0598 94.7878 24.6529 99.218 25.8014C103.976 27.032 104.756 19.0742 103.607 11.1574L112.447 10.1114C112.447 10.1114 115.4 18.8281 113.554 26.2937Z" fill="url(#paint5_linear_316_2)"/>
<path fillRule="evenodd" clipRule="evenodd" d="M91.8754 38.7842L81.723 40.4866L80.3693 40.7122C79.9386 38.1484 79.5284 35.7898 79.2208 34.0465L72.2269 33.9234C71.4475 37.1845 70.5656 40.8968 70.5656 40.8968L59.0801 37.8203C59.0801 37.8203 60.7619 32.5903 63.1615 25.863C66.0329 17.8437 69.9298 7.67077 73.2114 1.66138L80.677 1.74342C80.677 1.74342 83.938 8.24504 88.7168 26.1296C89.7013 29.8419 90.7678 34.0465 91.8754 38.7842ZM77.9492 27.1141C77.3954 24.2427 76.8006 21.3303 76.2468 18.8692C75.5495 21.0227 74.7086 24.0992 73.8882 27.2577L77.9492 27.1141Z" fill="url(#paint6_linear_316_2)"/>
<path fillRule="evenodd" clipRule="evenodd" d="M161.568 34.2514L151.97 35.1128C151.97 35.1128 151.293 32.9388 150.247 30.4776C149.242 30.4366 143.13 31.0519 143.13 31.0519L142.699 37.8201L133.285 36.8357C133.285 36.8357 136.915 19.2382 139.705 11.465L148.544 11.5265C148.544 11.5265 152.318 15.5669 157.815 26.3756C158.984 28.6727 160.235 31.298 161.568 34.2514ZM148.339 25.8424C146.719 22.4583 144.935 20.1611 144.935 20.1611C144.381 22.007 143.684 24.3247 143.438 26.2321L148.339 25.8424Z" fill="url(#paint7_linear_316_2)"/>
<path d="M139.294 13.2904C139.294 13.2904 136.074 20.6535 133.243 27.4832C131.705 31.175 130.351 34.19 129.613 36.3435L119.03 36.9383C119.03 36.9383 117.635 31.6673 116.261 26.4578C114.866 21.1867 113.246 15.2389 112.303 12.6956C112.303 12.6956 116.179 10.8087 119.932 9.5166C119.932 9.5166 123.542 16.531 125.265 21.8225C125.265 21.8225 128.321 14.521 130.413 10.3575L139.294 13.2904Z" fill="url(#paint8_linear_316_2)"/>
<path d="M73.9289 3.52765C73.3752 4.53263 72.9034 5.59915 72.4112 6.64515C71.9053 7.71166 71.4199 8.77818 70.955 9.84469C70.0252 11.9504 69.1228 14.0766 68.2477 16.2233C66.4838 20.5098 64.8636 24.8784 63.3458 29.2675C62.4981 31.7424 61.6845 34.2309 60.9052 36.7331C60.7616 37.1433 61.4179 37.3279 61.5615 36.9177C62.9151 32.5013 64.3987 28.119 66.0121 23.7709C67.6256 19.4365 69.3552 15.1431 71.2011 10.8907C71.7207 9.68745 72.254 8.4842 72.8009 7.28096C73.3136 6.09138 73.8879 4.92232 74.3801 3.73274C74.4827 3.46612 74.052 3.28153 73.9289 3.52765Z" fill="#FEFEFE"/>
<path d="M98.2746 34.5592C98.09 34.5182 97.9465 34.4361 97.7824 34.3746C97.5773 34.3131 97.3722 34.2926 97.1876 34.2516C96.8184 34.1558 96.4629 34.0328 96.1211 33.8824C95.4443 33.5952 94.7879 33.2056 94.2137 32.7748C93.0036 31.8519 92.0191 30.6418 91.3218 29.2882C89.7015 26.1091 89.5989 22.3968 90.1117 18.9307C90.2758 17.8642 90.4809 16.8182 90.7065 15.7516C90.9526 14.6851 91.2602 13.6186 91.3833 12.5316C91.4243 12.2445 90.9936 12.224 90.8911 12.4701C90.5219 13.393 90.3168 14.398 90.0707 15.3825C89.8451 16.3669 89.64 17.3514 89.4759 18.3359C89.1682 20.2228 89.0247 22.1302 89.1682 24.0376C89.4554 27.4218 90.7065 30.8059 93.3933 33.021C94.0701 33.5952 94.829 34.067 95.6288 34.4361C96.0254 34.6139 96.4287 34.7575 96.8389 34.8669C97.0577 34.9352 97.2833 34.9899 97.5158 35.0309C97.7414 35.0719 97.967 35.0309 98.1926 35.0309C98.4592 35.0309 98.5412 34.6207 98.2746 34.5592Z" fill="#FEFEFE"/>
<path d="M122.537 33.8823C121.895 33.8413 121.252 33.7935 120.609 33.7388C119.112 28.4677 117.594 23.1762 116.077 17.8846C115.858 17.1326 115.639 16.3874 115.42 15.6491C115.195 14.8902 114.99 14.1313 114.682 13.4135C114.6 13.1674 114.251 13.3109 114.292 13.5571C114.498 14.9107 114.949 16.2438 115.318 17.5565C115.701 18.9101 116.077 20.2638 116.446 21.6174C117.205 24.2837 117.964 26.9705 118.723 29.6573L119.994 34.149C120.035 34.2925 120.158 34.4156 120.322 34.4361C121.047 34.4771 121.772 34.525 122.496 34.5797C122.927 34.6002 122.968 33.9028 122.537 33.8823Z" fill="#FEFEFE"/>
<path d="M140.135 13.2288C139.848 13.9057 139.643 14.6235 139.417 15.3208C139.185 16.0455 138.966 16.7702 138.761 17.4949C138.351 18.9101 137.94 20.3252 137.571 21.7609C136.833 24.646 136.176 27.5516 135.602 30.4776C135.438 31.3117 135.281 32.1389 135.13 32.9593C135.048 33.3695 134.973 33.7866 134.905 34.2104C134.823 34.6206 134.72 35.0308 134.761 35.441C134.782 35.7282 135.192 35.7897 135.315 35.5231C135.459 35.1949 135.5 34.8462 135.561 34.4771C135.63 34.1079 135.698 33.7319 135.766 33.349C135.889 32.6243 136.026 31.8996 136.176 31.175C136.464 29.7119 136.764 28.2489 137.079 26.7859C137.722 23.9145 138.433 21.0568 139.212 18.2127C139.444 17.406 139.67 16.5993 139.889 15.7926C140.114 14.9722 140.381 14.1723 140.545 13.3519C140.607 13.1263 140.237 13.0032 140.135 13.2288Z" fill="#FEFEFE"/>
<path fillRule="evenodd" clipRule="evenodd" d="M73.2116 0.0205111L80.6977 0.102549H81.7027L82.1334 1.00498C82.2359 1.18957 84.1023 4.94288 87.0352 14.3569C87.4865 12.6341 88.0402 11.1369 88.594 9.9678L89.1478 8.81924L90.3783 9.06536L97.6388 10.46L99.2591 10.7677L98.931 12.388C98.931 12.429 98.3157 15.4234 98.2541 18.5409C98.1516 22.4378 98.931 24.0376 99.6488 24.2222C99.8402 24.2632 100.011 24.2837 100.162 24.2837C100.408 24.2837 100.715 24.2427 101.064 23.853C102.459 22.2327 102.828 17.2283 101.987 11.383L101.741 9.72168L103.423 9.51658L112.262 8.47057L113.596 8.3065L114.006 9.57811C114.026 9.59862 114.067 9.7627 114.149 10.0293C115.626 9.39352 117.533 8.61414 119.42 7.97834L120.753 7.50661L121.41 8.77822C121.512 9.00383 123.604 13.0853 125.368 17.4129C126.435 14.9722 127.809 11.8752 128.937 9.61913L129.593 8.36802L130.926 8.79873L138.064 11.1574C138.091 11.0753 138.125 10.9933 138.166 10.9112L138.556 9.80372L139.725 9.82423L148.544 9.88575H149.242L149.734 10.3985C149.898 10.5831 153.733 14.7466 159.271 25.6168C160.522 28.078 161.794 30.7443 163.065 33.5747L163.988 35.6667L161.712 35.8718L152.134 36.7537L150.8 36.8767L150.411 35.6051C150.411 35.5846 149.919 34.0669 149.16 32.1595C147.97 32.2415 146.104 32.4056 144.688 32.5492L144.34 37.9227L144.237 39.6251L142.535 39.4405L133.121 38.4765L131.316 38.2919L131.685 36.5076C131.685 36.4665 131.849 35.6872 132.136 34.3745C131.747 35.318 131.419 36.1589 131.172 36.8767L130.824 37.9227L129.716 37.9843L119.133 38.5791L117.8 38.6611L117.451 37.369C117.451 37.369 116.2 32.5902 114.888 27.6473C114.457 29.042 113.883 30.3546 113.165 31.5852C110.663 35.8513 106.007 38.3945 100.736 38.3945C97.885 38.3945 95.1982 37.6766 92.9831 36.3845C93.1472 37.0545 93.3113 37.7313 93.4753 38.415L93.865 40.1173L92.1422 40.4044L82.0103 42.1068L80.6362 42.3324L79.0159 42.6195L78.7493 40.9992C78.4621 39.2764 78.1545 37.492 77.8468 35.6667L73.5192 35.5846C72.8424 38.4355 72.1656 41.2453 72.1656 41.2864L71.7759 42.9272L70.1351 42.4759L58.6701 39.3995L56.9883 38.9482L57.5215 37.3075C57.542 37.2459 59.2444 31.9954 61.6235 25.3092C64.3718 17.577 68.3713 7.0759 71.7554 0.861411L72.2271 0L73.2116 0.0205111ZM63.1618 25.8629C60.7621 32.5902 59.0803 37.8202 59.0803 37.8202L70.5658 40.9172C70.5658 40.9172 71.4477 37.1844 72.2271 33.9438L79.221 34.0464C79.5286 35.7897 79.9388 38.1689 80.3695 40.7326L81.7232 40.507L91.8756 38.7842C91.2466 36.1452 90.645 33.6635 90.0707 31.3391C92.1217 34.8258 96.3877 36.7742 100.736 36.7742C104.981 36.7742 109.329 34.8873 111.75 30.7648C112.611 29.3086 113.185 27.7909 113.555 26.2937C114.211 23.6684 114.252 20.8585 114.047 18.3563C114.765 20.8585 115.544 23.7504 116.262 26.4577C117.636 31.6877 119.031 36.9588 119.031 36.9588L129.614 36.364C130.352 34.2105 131.706 31.1955 133.244 27.4832C135.274 22.5609 137.531 17.3719 138.618 14.8491C136.054 23.4223 133.285 36.8562 133.285 36.8562L142.699 37.8202L143.13 31.0519C143.13 31.0519 148.729 30.4982 150.083 30.4982C150.137 30.4982 150.192 30.4982 150.247 30.4982C151.293 32.9594 151.969 35.1334 151.969 35.1334L161.548 34.2515C160.235 31.2981 158.984 28.6933 157.815 26.3757C152.318 15.5875 148.524 11.5471 148.524 11.5471L139.705 11.465C139.513 12.0119 139.315 12.6067 139.11 13.2494L130.414 10.378C128.322 14.521 125.266 21.843 125.266 21.843C123.543 16.531 119.933 9.53709 119.933 9.53709C117.185 10.46 114.395 11.7316 113.062 12.3264C112.734 10.9523 112.447 10.1114 112.447 10.1114L103.607 11.1574C104.674 18.5409 104.079 25.945 100.162 25.945C99.8744 25.945 99.5599 25.8971 99.2181 25.8014C94.7675 24.6529 97.3312 12.0803 97.3312 12.0803L90.0707 10.6856C88.7581 13.434 87.548 17.9256 87.7326 22.5609C83.487 7.36304 80.6772 1.74334 80.6772 1.74334L73.2116 1.6613C69.9095 7.6912 66.0331 17.8436 63.1618 25.8629ZM144.935 20.1817C144.935 20.1817 146.719 22.4788 148.339 25.8629L143.437 26.2526C143.684 24.3247 144.381 22.0071 144.935 20.1817ZM76.247 18.8896C76.8008 21.3303 77.3956 24.2427 77.9494 27.1346L73.8884 27.2781C74.7088 24.1196 75.5497 21.0431 76.247 18.8896ZM145.734 24.4067C145.666 24.2974 145.598 24.188 145.529 24.0786C145.502 24.2016 145.475 24.3247 145.447 24.4478L145.734 24.4067Z" fill="#050505"/>
<defs>
<linearGradient id="paint0_linear_316_2" x1="35.8002" y1="32.325" x2="35.8002" y2="26.119" gradientUnits="userSpaceOnUse">
<stop stop-color="#7DB9E4"/>
<stop offset="1" stop-color="#7DB9E4" stop-opacity="0"/>
</linearGradient>
<linearGradient id="paint1_linear_316_2" x1="48.1852" y1="33.1194" x2="48.5617" y2="27.1823" gradientUnits="userSpaceOnUse">
<stop stop-color="#7DB9E4"/>
<stop offset="1" stop-color="#7DB9E4" stop-opacity="0"/>
</linearGradient>
<radialGradient id="paint2_radial_316_2" cx="0" cy="0" r="1" gradientUnits="userSpaceOnUse" gradientTransform="translate(35.2648 10.523) rotate(180) scale(4.07365)">
<stop offset="0.215" stop-color="#FEFEFE"/>
<stop offset="1" stop-color="#FEFEFE" stop-opacity="0"/>
</radialGradient>
<radialGradient id="paint3_radial_316_2" cx="0" cy="0" r="1" gradientUnits="userSpaceOnUse" gradientTransform="translate(41.3684 20.653) rotate(180) scale(5.61729 5.61729)">
<stop offset="0.215" stop-color="#FEFEFE"/>
<stop offset="1" stop-color="#FEFEFE" stop-opacity="0"/>
</radialGradient>
<radialGradient id="paint4_radial_316_2" cx="0" cy="0" r="1" gradientUnits="userSpaceOnUse" gradientTransform="translate(10.3901 5.35369) rotate(180) scale(5.11254 5.11254)">
<stop offset="0.215" stop-color="#FEFEFE"/>
<stop offset="1" stop-color="#FEFEFE" stop-opacity="0"/>
</radialGradient>
<linearGradient id="paint5_linear_316_2" x1="114.599" y1="12.4766" x2="114.138" y2="54.6802" gradientUnits="userSpaceOnUse">
<stop stop-color="#2BC6F3"/>
<stop offset="1" stop-color="#1B58A7"/>
</linearGradient>
<linearGradient id="paint6_linear_316_2" x1="98.9691" y1="12.7041" x2="98.9691" y2="55.0231" gradientUnits="userSpaceOnUse">
<stop stop-color="#2BC6F3"/>
<stop offset="1" stop-color="#1B58A7"/>
</linearGradient>
<linearGradient id="paint7_linear_316_2" x1="159.705" y1="13.9518" x2="159.705" y2="60.8394" gradientUnits="userSpaceOnUse">
<stop stop-color="#2BC6F3"/>
<stop offset="1" stop-color="#1B58A7"/>
</linearGradient>
<linearGradient id="paint8_linear_316_2" x1="139.662" y1="14.69" x2="137.035" y2="58.0631" gradientUnits="userSpaceOnUse">
<stop stop-color="#2BC6F3"/>
<stop offset="1" stop-color="#1B58A7"/>
</linearGradient>
</defs>
</svg>
