<svg width="35" height="32" viewBox="0 0 35 32" fill="none" xmlns="http://www.w3.org/2000/svg">
<path d="M0.476048 8.47227C0.618934 11.9114 5.2553 14.774 7.24583 12.951C7.49219 12.7194 7.76318 12.4484 8.03909 12.1479C9.97543 10.0489 12.3848 6.55564 12.3848 6.55564C12.3848 6.55564 11.828 4.00835 7.88143 2.98352C6.84674 2.71253 5.86626 2.68789 4.97446 2.85541C2.24486 3.3629 0.362726 5.68848 0.476048 8.47227Z" fill="#FEFEFE"/>
<path d="M2.38258 4.86523C2.38258 4.86523 1.82582 6.9149 2.62894 8.19593C3.47146 9.55087 5.23535 10.014 5.23535 10.014L5.21565 11.3345L2.75704 10.8713L1.65337 8.99904L1.14589 6.9149L1.20009 6.43204" fill="#737374"/>
<path d="M0.476018 8.47183C0.579487 10.9452 3.00853 13.123 5.10746 13.4679C5.13702 13.4744 5.16822 13.4794 5.20107 13.4827C5.97955 13.5911 6.70875 13.4383 7.2458 12.9456C7.49216 12.719 7.76315 12.448 8.03906 12.1474L5.35381 10.7481C5.35381 10.7481 2.78681 10.216 2.00833 8.36837C1.05248 6.09699 2.65871 3.80098 4.86111 2.90425C4.90052 2.88783 4.9383 2.8714 4.97443 2.85498C3.71803 3.08655 2.639 3.70736 1.8556 4.57945C1.21015 5.29388 0.761788 6.18075 0.57456 7.16124C0.4908 7.58496 0.45631 8.01854 0.476018 8.47183Z" fill="#CBCBCB"/>
<path d="M0.476153 8.47231C0.579622 10.9457 3.00866 13.1235 5.10759 13.4684C5.13716 13.4749 5.16836 13.4799 5.20121 13.4831L6.15213 13.1185L6.50195 11.5123L4.46215 10.8915C4.46215 10.8915 4.32912 11.5222 3.81178 11.4335C3.29444 11.3399 0.998423 9.8716 0.978714 7.45241C0.968861 6.59018 0.791486 6.68379 0.574695 7.16172C0.490934 7.58544 0.456445 8.01903 0.476153 8.47231Z" fill="#050505"/>
<path d="M0.475981 8.47197C0.579449 10.9454 3.00849 13.1231 5.10742 13.468L4.78716 12.926C4.78716 12.926 2.56506 11.9357 1.52545 10.0831C0.549886 8.35865 1.00318 5.75716 1.7718 4.74218C1.82764 4.66663 1.85556 4.61244 1.85556 4.57959C0.934198 5.59949 0.416856 6.96922 0.475981 8.47197Z" fill="#FEFEFE"/>
<path d="M3.78125 5.44688L2.71701 4.23975L2.51007 4.56001" fill="#CBCBCB"/>
<path d="M12.3844 6.55542L12.2464 6.58006C12.2464 6.57513 12.1085 5.95925 11.4876 5.22019C10.8718 4.4762 9.77795 3.61396 7.84654 3.1114C7.24544 2.95866 6.66405 2.88476 6.11222 2.88476C4.5257 2.88476 3.15598 3.47601 2.17549 4.44171C1.19501 5.40742 0.613612 6.74265 0.613612 8.23063C0.613612 8.30946 0.615253 8.38829 0.618538 8.46712C0.643173 9.1175 0.840259 9.75309 1.15066 10.3394C1.61874 11.2164 2.35287 11.9801 3.17076 12.5221C3.98373 13.0641 4.88045 13.3843 5.66385 13.3843C5.94962 13.3843 6.22061 13.34 6.47189 13.2513C6.71825 13.1675 6.94489 13.0345 7.1469 12.8522C7.63468 12.4038 8.20129 11.7781 8.77776 11.0982C9.63507 10.0733 10.5121 8.91548 11.1674 8.01876C11.4975 7.5704 11.7734 7.18609 11.9656 6.9151C12.0592 6.77714 12.138 6.66875 12.1873 6.59484C12.2136 6.55871 12.2333 6.53079 12.2464 6.51108C12.2596 6.49137 12.2661 6.48152 12.2661 6.48152L12.3844 6.55542L12.5026 6.62933C12.5026 6.62933 11.7143 7.77241 10.6747 9.14706C10.1573 9.83192 9.57594 10.5759 8.99948 11.2657C8.41808 11.9506 7.84654 12.5812 7.34398 13.0444C7.11241 13.2562 6.85128 13.409 6.57044 13.5075C6.28467 13.6061 5.97919 13.6504 5.66385 13.6504C5.09231 13.6504 4.48136 13.4977 3.88518 13.2267C2.98846 12.8276 2.12622 12.1575 1.47585 11.3347C0.820549 10.5069 0.377112 9.52152 0.332769 8.47698C0.329484 8.39486 0.327844 8.31274 0.327844 8.23063C0.327844 6.67367 0.943725 5.26946 1.97348 4.25448C3.00324 3.23951 4.45179 2.61377 6.11222 2.61377C6.69361 2.61377 7.29471 2.6926 7.92045 2.8552C9.92084 3.37254 11.0738 4.28405 11.7241 5.06745C12.3745 5.85578 12.5223 6.51108 12.5223 6.52586L12.5371 6.58006L12.5026 6.62933L12.3844 6.55542Z" fill="#050505"/>
<path d="M4.5952 11.0191C4.7578 12.6598 5.71365 13.0146 5.71365 13.0146L11.0102 7.99882L12.2617 6.81633C12.2617 6.81633 10.9363 5.51558 8.71423 5.92946C8.3989 5.98365 8.06878 6.07727 7.71404 6.2103C4.89575 7.30411 4.47695 9.83662 4.5952 11.0191Z" fill="#FBE02C"/>
<path d="M4.59593 11.0194C4.70926 12.1526 5.19704 12.67 5.49266 12.8868C5.62076 12.9804 5.71438 13.0149 5.71438 13.0149L11.011 7.9991L11.3115 6.42737C11.3115 6.42737 9.07464 6.27463 6.60125 8.87119C6.60125 8.87119 6.69979 7.15657 8.59671 6.00364C8.63941 5.97736 8.67883 5.95108 8.71496 5.9248C8.39963 5.98393 8.06459 6.07755 7.71477 6.21058C6.69979 6.60474 5.99522 7.18614 5.5173 7.82665C4.66491 8.95495 4.5171 10.2656 4.59593 11.0194Z" fill="#E88F30"/>
<path d="M4.59471 11.0196C4.70803 12.1528 5.19581 12.6701 5.49144 12.8869C5.53085 12.68 5.56042 12.3302 5.35841 11.8325C4.52573 9.78288 5.68359 7.80713 5.68359 7.80713L5.51607 7.82684C4.66369 8.95514 4.51588 10.2657 4.59471 11.0196Z" fill="#FEFEFE"/>
<path d="M12.2609 6.81655L12.1624 6.91017C12.1525 6.90031 11.9062 6.66874 11.4627 6.43717C11.0193 6.21052 10.3788 5.97895 9.57075 5.97895C9.04355 5.98388 8.43752 6.07749 7.76744 6.33863C6.52582 6.82148 5.76705 7.58518 5.31376 8.38336C4.86047 9.18647 4.71759 10.029 4.71759 10.6498C4.71759 10.7779 4.72251 10.8962 4.73237 11.0046C4.81613 11.8027 5.08219 12.2708 5.32362 12.5467C5.44186 12.6798 5.55519 12.7684 5.63895 12.8226C5.68329 12.8473 5.71285 12.867 5.73749 12.8768C5.74734 12.8834 5.75391 12.8867 5.7572 12.8867L5.76213 12.8916H5.76705L5.73749 12.9606L5.76213 12.8916H5.76705L5.73749 12.9606L5.76213 12.8916L5.71285 13.0148L5.61431 12.9212L12.1624 6.72294L12.2609 6.81655L12.3595 6.91017L5.74734 13.1725L5.65866 13.138C5.64388 13.1331 5.38274 13.0345 5.10683 12.7192C4.83091 12.4038 4.53529 11.8766 4.45153 11.0292C4.44167 10.9142 4.43674 10.7878 4.43674 10.6498C4.43674 9.98958 4.58456 9.10764 5.06248 8.26018C5.54533 7.4078 6.3583 6.59484 7.66397 6.08735C8.36361 5.81636 9.00413 5.71289 9.57075 5.71289C10.4527 5.71289 11.1474 5.96417 11.6204 6.21545C12.0983 6.46673 12.3545 6.71801 12.3644 6.72294L12.458 6.81655L12.3595 6.91017L12.2609 6.81655Z" fill="#050505"/>
<path d="M14.0164 30.2252C18.5149 32.0137 23.2941 31.8708 27.1027 30.1907C28.8223 29.4368 30.3398 28.3677 31.5469 27.0275C32.3501 26.1357 33.0152 25.1207 33.5079 23.9974C35.262 20.0163 34.4687 15.5622 31.8229 11.9704C30.6847 10.4233 29.1967 9.03878 27.4279 7.92034C26.5213 7.3488 25.5359 6.84624 24.4865 6.43237C23.8065 6.15645 23.1167 5.9298 22.422 5.7475C19.1948 4.89019 15.9183 4.97395 13.0458 5.85097C9.43921 6.95956 6.45833 9.31962 4.99007 12.6602C2.09788 19.2329 6.13807 27.0965 14.0164 30.2252Z" fill="#FEFEFE"/>
<path d="M14.0153 30.2251C15.523 30.8262 17.0651 31.2105 18.5925 31.3879C19.013 31.4371 19.4301 31.4716 19.844 31.4913C21.1447 31.5505 22.4209 31.4667 23.6428 31.245C24.8548 31.0233 26.0176 30.6685 27.1016 30.1906C24.0763 30.5601 15.385 30.9789 11.7932 24.2338C8.42306 17.9025 9.54643 10.5168 16.2522 7.31917C15.1485 6.54562 13.9956 6.01842 12.8131 5.9248C12.5864 6.00035 12.3614 6.07919 12.1381 6.16131C11.7833 6.29598 11.4368 6.44215 11.0985 6.59981C10.6747 6.80182 10.2658 7.01861 9.86669 7.25019C7.71849 8.53615 5.99894 10.3641 4.9889 12.6601C2.09671 19.2328 6.1369 27.0964 14.0153 30.2251Z" fill="#CBCBCB"/>
<path d="M14.0151 30.2249C15.5228 30.826 17.0649 31.2103 18.5923 31.3877C19.0128 31.437 19.4299 31.4715 19.8438 31.4912C21.1446 31.5503 22.4207 31.4665 23.6426 31.2448C20.6321 31.57 14.3354 30.4466 10.0439 25.421C5.29419 19.8485 7.73801 14.5421 8.52142 13.2709C9.30482 11.9997 8.93529 11.4873 8.28984 11.2212C7.63947 10.9601 7.77743 9.35878 9.63 7.65895C9.81231 7.49143 9.87636 7.35347 9.8665 7.25C7.7183 8.53596 5.99876 10.3639 4.98871 12.6599C2.09652 19.2326 6.13672 27.0962 14.0151 30.2249Z" fill="#050505"/>
<path d="M14.0155 30.2249C15.5232 30.826 17.0654 31.2103 18.5928 31.3877C18.3924 31.3253 18.1658 31.2629 17.9128 31.2005C11.0544 29.5006 4.35355 23.7261 4.7625 16.71C5.20101 9.23562 12.1482 6.16113 12.1482 6.16113H12.1383C8.94065 7.36826 6.33423 9.60515 4.98914 12.6599C2.09696 19.2326 6.13715 27.0962 14.0155 30.2249Z" fill="#FEFEFE"/>
<path d="M13.5426 9.0489C14.3112 8.38375 15.1784 7.85163 16.0406 7.42297C15.8337 7.11749 15.6317 6.92041 15.6317 6.92041C16.218 7.21603 16.9521 7.83192 16.9521 7.83192C15.4198 8.83211 13.7742 10.2511 12.641 12.1727C9.92615 16.7795 10.4238 23.4458 15.1439 28.1314C15.1439 28.1314 11.9413 26.3626 10.4189 21.1941C8.90133 16.0306 10.4534 11.7144 13.5426 9.0489Z" fill="#737374"/>
<path d="M11.2311 20.5532C11.2311 20.5532 11.0587 21.6322 10.7187 22.2038L11.1178 21.6618L11.305 21.179L11.374 20.9819" fill="#FEFEFE"/>
<path d="M10.0986 14.9116C10.0986 14.9116 10.9116 16.237 11.1037 17.6363L11.4043 17.4047C11.4043 17.4047 11.2368 16.6607 11.0348 16.237C10.8377 15.8133 10.611 15.4979 10.611 15.4979" fill="#FEFEFE"/>
<path d="M9.20271 23.4354C9.20271 23.4354 12.154 29.4218 22.358 29.7027C25.9153 29.8012 29.0144 28.6138 31.5469 27.0273C32.3501 26.1355 33.0152 25.1205 33.5079 23.9971C35.262 20.0161 34.4687 15.562 31.8229 11.9702C31.0148 12.7486 28.6498 14.5076 23.6489 14.6111C18.6725 14.7145 13.2232 11.8125 13.2232 11.8125C13.2232 11.8125 10.8976 12.1623 9.20271 14.0149C9.20271 14.0149 11.8584 15.6605 11.5973 19.7599C11.41 22.7999 9.20271 23.4354 9.20271 23.4354Z" fill="#FBE02C"/>
<path fill-rule="evenodd" clip-rule="evenodd" d="M10.8769 12.6899C10.5616 13.4044 10.33 14.1533 10.1772 14.9268C9.6599 14.3011 9.20168 14.0153 9.20168 14.0153C9.72888 13.4389 10.3201 13.0102 10.8769 12.6899ZM9.20168 23.4359C9.20168 23.4359 10.1477 23.1649 10.8523 22.1253C11.1134 22.8348 11.4238 23.5393 11.7933 24.2341C12.961 26.4266 14.6658 27.8604 16.5381 28.7867C10.9804 27.0376 9.20168 23.4359 9.20168 23.4359Z" fill="#E88F30"/>
<path d="M11.3014 21.2378C11.8434 23.6915 13.0949 26.0959 15.1445 28.1308C15.1445 28.1308 12.3804 26.6034 10.7693 22.2429C10.9713 21.967 11.1585 21.6369 11.3014 21.2378Z" fill="#9E5825"/>
<path d="M11.5723 21.4599C11.5723 21.4599 11.2175 22.0167 10.7889 22.3074L11.0894 21.6718L11.3308 21.1396" fill="#FBE02C"/>
<path d="M12.8076 11.9014C12.7485 11.9901 12.6927 12.0804 12.6401 12.1724C11.8616 13.4879 11.3492 14.9709 11.1226 16.5279C10.8269 15.7888 10.4377 15.2271 10.0928 14.8231C10.2505 14.0939 10.482 13.4041 10.7727 12.7488C11.5857 12.266 12.3543 12.0196 12.8076 11.9014Z" fill="#9E5825"/>
<path d="M10.724 12.8472C10.724 12.8472 11.803 12.4037 12.9707 12.2954L12.9559 11.8667C12.9559 11.8667 12.1725 12.1131 11.8128 12.251C11.4581 12.389 11.0689 12.5466 11.0689 12.5466" fill="#FBE02C"/>
<path d="M9.20219 23.4358L9.28595 23.4013V23.4062C9.32536 23.485 10.0989 24.973 12.1042 26.4708C14.1095 27.9687 17.3565 29.4813 22.3624 29.6192C22.4971 29.6225 22.6317 29.6241 22.7664 29.6241C26.1316 29.6241 29.073 28.4761 31.4972 26.9537L31.5464 27.0276L31.4774 26.9734C32.2756 26.0865 32.9359 25.0814 33.4286 23.963C34.0592 22.5341 34.3549 21.0412 34.3549 19.5483C34.3549 16.9222 33.4286 14.296 31.7484 12.0197L31.8223 11.9705L31.8864 12.0296C31.0636 12.8229 28.6739 14.5917 23.6483 14.6951C23.5597 14.6984 23.471 14.7001 23.3823 14.7001C20.9138 14.7001 18.3665 13.9955 16.4302 13.2909C14.4988 12.5864 13.1783 11.8867 13.1783 11.8867L13.2227 11.8128L13.2325 11.8916L13.2276 11.8966C13.1635 11.9064 12.5772 12.005 11.8086 12.3252C11.0351 12.6455 10.0792 13.1875 9.27117 14.0743L9.20219 14.0152L9.25146 13.9462C9.26131 13.9512 9.87227 14.3305 10.4832 15.178C11.0942 16.0255 11.7051 17.341 11.7051 19.2034C11.7051 19.3841 11.6986 19.5713 11.6854 19.7651C11.5918 21.3023 10.9809 22.2483 10.3896 22.8002C9.80329 23.352 9.23668 23.5146 9.23175 23.5146L9.20219 23.4358L9.17755 23.3569C9.20219 23.3471 9.74416 23.1845 10.296 22.6524C10.8478 22.1252 11.4194 21.2334 11.513 19.7552C11.5228 19.5647 11.5278 19.3808 11.5278 19.2034C11.5278 17.3755 10.9316 16.0994 10.3354 15.2716C10.0398 14.8627 9.74416 14.5621 9.52245 14.37C9.40912 14.2714 9.32044 14.2024 9.25639 14.1532C9.22354 14.1302 9.1989 14.1137 9.18248 14.1039C9.17262 14.0973 9.16605 14.0924 9.16277 14.0891H9.15784L9.06915 14.0349L9.13813 13.961C9.99544 13.0199 11.0104 12.4632 11.8135 12.1429C12.6166 11.8177 13.203 11.729 13.2079 11.729L13.2375 11.7241L13.2621 11.7389C13.2621 11.7389 13.267 11.7405 13.2769 11.7438C13.4345 11.8276 14.7796 12.5223 16.6765 13.2022C18.5735 13.8772 21.0271 14.5325 23.3823 14.5325C23.471 14.5325 23.558 14.5309 23.6434 14.5276C28.6296 14.4242 30.965 12.68 31.7583 11.9113L31.8322 11.8374L31.8913 11.9212C33.5912 14.2271 34.5322 16.8828 34.5322 19.5483C34.5322 21.0609 34.2317 22.5784 33.5912 24.027C33.0935 25.1602 32.4234 26.1801 31.6105 27.0818L31.6056 27.0916L31.5957 27.0966C29.1519 28.6289 26.171 29.7917 22.7664 29.7917C22.6284 29.7917 22.4921 29.79 22.3574 29.7867C17.2333 29.6488 13.9223 28.0721 11.8973 26.53C9.87227 24.9878 9.12828 23.4801 9.12336 23.4702L9.07901 23.3865L9.17755 23.3569L9.20219 23.4358Z" fill="#050505"/>
<path d="M13.0445 5.85073C14.9661 5.92957 16.7645 6.84107 18.9866 8.97449C22.135 12.0046 25.5987 11.9701 26.9635 10.5512C27.604 9.88107 27.7567 8.71336 27.4266 7.9201C26.5201 7.34856 25.5346 6.846 24.4852 6.43213C20.6125 4.88996 16.5329 4.78156 13.0445 5.85073Z" fill="#FBE02C"/>
<path d="M16.6997 7.112C18.8874 6.14137 20.868 5.84082 20.868 5.84082L20.9912 5.86053C20.9912 5.86053 19.6905 6.25469 18.0399 7.17605C18.168 7.27952 18.4636 7.53573 18.779 7.90526C19.1978 8.40289 19.3899 8.83647 19.922 9.30947C20.4591 9.78247 19.3505 9.03356 19.3505 9.03356L18.4833 8.1122L17.6457 7.41255L17.6802 7.37806C17.5751 7.44047 17.4684 7.50617 17.36 7.57514C17.1366 7.40762 16.9165 7.25324 16.6997 7.112Z" fill="#9E5825"/>
<path d="M13.9176 5.61426C15.6175 5.8409 17.268 6.77212 19.2536 8.67889C22.3183 11.6253 25.6736 11.6746 27.1123 10.3738C27.068 10.4329 27.0187 10.497 26.9645 10.5512C25.5997 11.9702 22.136 12.0047 18.9876 8.97452C16.7655 6.8411 14.9671 5.92959 13.0455 5.85076C13.3313 5.76535 13.622 5.68652 13.9176 5.61426Z" fill="#E88F30"/>
<path d="M13.4438 5.73724C13.5128 5.71754 13.5834 5.69783 13.6557 5.67812C13.6918 5.66826 13.7279 5.65841 13.764 5.64856C13.833 5.63213 13.9036 5.61571 13.9759 5.59929C14.0088 5.58943 14.0432 5.58122 14.0794 5.57465C14.1582 5.55494 14.237 5.53688 14.3159 5.52045C14.3422 5.51389 14.3684 5.50896 14.3947 5.50567C14.4998 5.48268 14.6066 5.46133 14.715 5.44162C14.7281 5.43834 14.7429 5.43505 14.7593 5.43177C14.8513 5.41534 14.9416 5.39892 15.0303 5.38249C15.0631 5.37593 15.0976 5.371 15.1338 5.36771C15.206 5.35458 15.2799 5.34144 15.3555 5.3283C15.3916 5.32501 15.4278 5.32009 15.4639 5.31352C15.5394 5.30366 15.615 5.29381 15.6905 5.28395C15.7234 5.28067 15.7579 5.27574 15.794 5.26917C15.8827 5.25932 15.973 5.24947 16.065 5.23961C16.0814 5.23633 16.0995 5.23468 16.1192 5.23468C16.2276 5.22154 16.3376 5.21169 16.4493 5.20512C16.4756 5.20184 16.5019 5.19855 16.5281 5.19527C16.6102 5.1887 16.6924 5.18377 16.7745 5.18049C16.8139 5.1772 16.8517 5.17556 16.8878 5.17556C16.9634 5.16899 17.0373 5.16406 17.1095 5.16078C17.1489 5.16078 17.1884 5.15914 17.2278 5.15585C17.3066 5.15585 17.3838 5.15421 17.4593 5.15092C17.4955 5.15092 17.53 5.14928 17.5628 5.146C17.6712 5.146 17.7796 5.146 17.888 5.146H17.8979C18.0062 5.146 18.1163 5.14764 18.228 5.15092C18.2674 5.15092 18.3052 5.15092 18.3413 5.15092C18.4168 5.15421 18.4907 5.15749 18.563 5.16078C18.609 5.16406 18.6533 5.16571 18.696 5.16571C18.765 5.16899 18.8356 5.17392 18.9079 5.18049C18.9506 5.18049 18.9933 5.18213 19.036 5.18541C19.1116 5.19198 19.1871 5.19855 19.2626 5.20512C19.2988 5.20841 19.3366 5.21005 19.376 5.21005C19.4844 5.2199 19.5928 5.2314 19.7012 5.24454C19.734 5.24782 19.7669 5.25111 19.7997 5.25439C19.8785 5.26425 19.959 5.2741 20.0411 5.28395C20.0871 5.29052 20.1331 5.29709 20.1791 5.30366C20.2448 5.31023 20.3105 5.31844 20.3762 5.3283C20.4254 5.33487 20.4764 5.34308 20.5289 5.35293C20.5913 5.36279 20.6554 5.37264 20.7211 5.38249C20.7703 5.38906 20.8196 5.39728 20.8689 5.40713C20.9379 5.42027 21.0052 5.43341 21.0709 5.44655C21.1169 5.45312 21.1629 5.46133 21.2088 5.47118C21.314 5.49089 21.4191 5.51224 21.5242 5.53524C21.5767 5.54509 21.6293 5.55659 21.6818 5.56973C21.741 5.58286 21.8001 5.596 21.8592 5.60914C21.9151 5.62228 21.9725 5.63542 22.0317 5.64856C22.0842 5.6617 22.1368 5.67483 22.1893 5.68797C22.2517 5.7044 22.3125 5.72082 22.3716 5.73724C22.3881 5.74053 22.4045 5.74381 22.4209 5.7471C20.2086 5.92447 18.3068 6.39747 16.7006 7.1119C15.4392 6.28908 14.2666 5.89984 13.0447 5.85057C13.1432 5.821 13.2434 5.79144 13.3452 5.76188C13.3781 5.75531 13.4109 5.7471 13.4438 5.73724Z" fill="#E88F30"/>
<path d="M13.0453 5.76709C14.0208 5.80651 14.9668 6.05779 15.9473 6.5702C16.9229 7.07769 17.9329 7.84631 19.0514 8.91548C20.8941 10.6892 22.8403 11.3987 24.3923 11.3987C25.4713 11.3987 26.3582 11.0538 26.9002 10.4921C27.2993 10.0733 27.5062 9.43775 27.5062 8.83172C27.5062 8.51639 27.452 8.21091 27.3436 7.94978L27.5062 7.89065C27.6245 8.1715 27.6836 8.49668 27.6836 8.83172C27.6836 9.47224 27.4717 10.1472 27.0283 10.6055C26.4469 11.2115 25.5108 11.5662 24.3923 11.5662C22.7812 11.5662 20.7956 10.8321 18.9233 9.03373C17.8196 7.96949 16.8194 7.21564 15.8586 6.71308C14.9028 6.21545 13.9864 5.97402 13.0404 5.93461L13.0453 5.76709Z" fill="#050505"/>
<path d="M14.0164 30.225L14.0706 30.1018C16.2434 30.969 18.4853 31.3779 20.6433 31.3779C24.92 31.3779 28.8863 29.7766 31.4385 26.9386C32.2318 26.0567 32.892 25.0565 33.3798 23.943C34.0055 22.519 34.3061 21.036 34.3061 19.548C34.3061 16.9318 33.3798 14.3155 31.7046 12.049C30.5763 10.5167 29.108 9.14207 27.3491 8.03348C26.4474 7.46686 25.4768 6.96923 24.4322 6.55536C22.2594 5.68819 20.0176 5.27925 17.8546 5.27925C16.1991 5.27925 14.588 5.52067 13.0901 5.97889C9.51308 7.07763 6.57162 9.41305 5.12306 12.7093C4.4924 14.1381 4.19678 15.6212 4.19678 17.1091C4.19678 22.3909 7.97091 27.6777 14.0706 30.1018L14.0164 30.225L13.9622 30.3482C7.76397 27.8846 3.91593 22.5141 3.91593 17.1091C3.91593 15.5867 4.22141 14.0642 4.86193 12.6058C6.3499 9.23075 9.36034 6.84113 13.0014 5.72268C14.5288 5.25461 16.1695 5.01318 17.8546 5.01318C20.057 5.01318 22.3333 5.42706 24.5406 6.30408C25.5999 6.7278 26.5903 7.23036 27.5018 7.80683C29.2903 8.93513 30.7881 10.3344 31.9362 11.8914C33.6409 14.2022 34.5869 16.8726 34.5869 19.548C34.5869 21.0705 34.2814 22.588 33.6409 24.0464C33.1384 25.1846 32.4683 26.2094 31.6553 27.1111C29.039 30.018 24.9939 31.644 20.6433 31.644C18.4458 31.644 16.1695 31.2301 13.9622 30.3482L14.0164 30.225Z" fill="#050505"/>
<path d="M31.6789 25.8201C31.6789 25.8201 33.6004 23.7212 33.694 20.0998C33.7926 16.4735 31.6148 13.3398 31.6148 13.3398C31.6148 13.3398 29.0527 15.5915 24.2439 15.4388C24.2439 15.4388 30.1416 15.7048 31.9942 18.6217C33.8024 21.4843 31.6789 25.8201 31.6789 25.8201Z" fill="#FEFEFE"/>
<path d="M2.91923 18.0555C3.37744 18.6418 3.83566 19.1641 4.28895 19.6075C5.04772 20.3663 5.79171 20.9132 6.46179 21.2482C7.20085 21.6178 7.85615 21.7212 8.36363 21.534C9.00908 21.3024 9.37861 20.6323 9.53628 19.8243C9.67916 19.0803 9.64467 18.2181 9.4673 17.4839C9.30471 16.7892 8.3932 16.065 7.24519 15.454C6.67858 15.1534 6.05284 14.8775 5.43203 14.6509C3.80117 14.0498 2.19495 13.764 1.70717 14.104C1.5298 14.2272 1.38198 14.3898 1.31301 14.6115C1.14056 15.1781 1.44111 16.1536 2.91923 18.0555Z" fill="#FEFEFE"/>
<path d="M2.92006 18.0554C3.37828 18.6417 3.8365 19.164 4.28979 19.6074C5.04855 20.3612 5.79254 20.9131 6.46262 21.2481C7.20168 21.6176 7.85698 21.7162 8.36447 21.5339C9.00991 21.3023 9.37944 20.6322 9.53711 19.8242L9.47799 19.7897C9.47799 19.7897 9.11338 20.583 8.80298 20.5583C8.734 20.5534 8.70444 20.4302 8.68473 20.2282C8.6256 19.4891 8.76356 17.7154 8.04421 17.1094C7.76829 16.8778 7.19675 16.5083 6.49218 16.119C6.3805 16.0566 6.26718 15.9942 6.15222 15.9318C6.07339 15.8891 5.99127 15.8464 5.90586 15.8037C5.8763 15.8398 5.8451 15.876 5.81225 15.9121C5.72849 16.0254 5.66444 16.1732 5.61517 16.3506C5.35403 17.3163 5.61517 19.1984 6.27539 21.0116C5.60531 20.6766 4.86625 20.1247 4.10256 19.3709C3.80201 18.2919 3.38813 16.5526 3.58029 15.6165C3.59507 15.5229 3.61971 15.444 3.64434 15.3701C3.70839 15.1927 3.81186 15.0597 3.97938 14.9661C3.29452 14.7099 2.68356 14.5769 2.16622 14.5719C1.91001 14.567 1.53556 14.6754 1.58975 15.2026C1.58975 15.2174 1.37789 14.8823 1.36311 14.8873C1.3434 14.8971 1.33355 14.6064 1.31384 14.6114C1.14139 15.178 1.44194 16.1535 2.92006 18.0554Z" fill="#CBCBCB"/>
<path d="M7.79688 21.4108C7.79688 21.4108 6.86073 21.0018 6.57496 20.5929C6.57496 20.5929 7.31402 20.9082 7.45198 20.4599C7.58501 20.0164 7.18592 18.5334 6.76219 18.1786C6.0724 17.6022 3.12602 15.7447 2.38696 15.518C1.6479 15.2963 1.99279 16.2127 2.18988 16.597C2.38696 16.9814 3.5054 18.6713 3.5054 18.6713L4.89976 19.9228L5.98372 20.6964L6.66365 21.1891" fill="#050505"/>
<path d="M1.66377 15.4484C1.66377 15.4484 1.4322 14.7685 1.65885 14.6059C1.80173 14.5024 2.17126 14.5172 2.42254 14.5418C2.88568 14.6059 3.41781 14.7537 3.97949 14.9656C3.81197 15.0592 3.7085 15.1922 3.64445 15.3696C3.23551 15.1774 2.83641 15.0099 2.5063 14.8916C1.30902 14.4728 1.6145 15.3006 1.71797 15.5962C1.75739 15.7095 1.70812 15.6011 1.63421 15.4238L1.66377 15.4484Z" fill="#737374"/>
<path d="M6.24075 16.5916C6.25553 16.705 7.507 17.3258 7.96029 17.9466C8.36924 18.5034 8.68457 20.2377 8.68457 20.2377V20.2278C8.62545 19.4888 8.7634 17.715 8.04405 17.109C7.76814 16.8774 7.1966 16.5079 6.49203 16.1187C6.31958 16.232 6.23089 16.4833 6.24075 16.5916Z" fill="#737374"/>
<path d="M1.31338 14.6112C1.38236 14.3895 1.53017 14.2269 1.70754 14.1037C1.7174 14.0971 1.72889 14.0906 1.74203 14.084C1.66813 14.1677 1.609 14.2712 1.57451 14.3895C1.40206 14.9511 1.70261 15.9316 3.18073 17.8335C3.63895 18.4198 4.09717 18.9371 4.54553 19.3855C5.30923 20.1393 6.04829 20.6912 6.71837 21.0262C7.46235 21.3908 8.11765 21.4943 8.62514 21.312C8.73846 21.2726 8.83701 21.2184 8.93555 21.1543C8.77295 21.3218 8.58572 21.4549 8.36401 21.5337C7.85652 21.7209 7.20122 21.6175 6.46216 21.2479C5.79208 20.9129 5.04809 20.366 4.28932 19.6072C3.83603 19.1638 3.37782 18.6415 2.9196 18.0552C1.44148 16.1534 1.14093 15.1778 1.31338 14.6112Z" fill="#FEFEFE"/>
<path d="M7.24121 15.5917C7.24121 15.5917 6.56127 15.8479 6.21145 16.5229C5.86163 17.1979 6.06857 16.0252 6.06857 16.0252L6.60069 15.6508L7.00471 15.498" fill="#CBCBCB"/>
<path d="M4.28888 19.607C5.04765 20.3658 5.79163 20.9127 6.46172 21.2477C5.67831 19.0995 5.45167 16.8577 5.99857 16.1531C6.33854 15.7146 6.85095 15.5274 7.24512 15.4535C6.6785 15.153 6.05277 14.877 5.43196 14.6504C4.93925 14.7588 4.42191 14.9756 4.05238 15.3993C3.45128 16.0891 3.88979 18.1831 4.28888 19.607Z" fill="#FBE02C"/>
<path d="M4.05258 15.3996C4.15112 15.2863 4.25951 15.1927 4.37776 15.104C4.87047 15.3011 5.36318 15.5327 5.83125 15.7642C5.81811 15.7774 5.80661 15.7922 5.79676 15.8086C5.24985 16.5131 5.57011 18.9422 6.35352 21.0904C5.72778 20.7751 4.94437 20.0902 4.23488 19.4053C3.85057 17.9913 3.47611 16.0599 4.05258 15.3996Z" fill="#E88F30"/>
<path d="M6.29395 20.9228L5.98354 20.6962L4.89959 19.9226L4.20487 19.2969C4.12604 18.7401 3.98808 17.2669 4.06691 16.4146C4.63352 16.7447 4.86017 16.927 5.412 17.2866C5.45635 18.3016 5.85544 19.6664 6.29395 20.9228Z" fill="#050505"/>
<path d="M4.05336 15.3996C4.1519 15.2863 4.2603 15.1927 4.37855 15.104C4.87125 15.3011 5.36396 15.5327 5.83203 15.7642C5.81889 15.7774 5.8074 15.7922 5.79754 15.8086C5.699 15.9318 5.63002 16.1141 5.58568 16.3358C5.23586 16.1485 4.61504 15.8283 3.9696 15.5228C3.99588 15.4768 4.0238 15.4358 4.05336 15.3996Z" fill="#9E5825"/>
<path d="M4.23488 19.4051C4.19218 19.254 4.15112 19.0964 4.1117 18.9321C4.25623 19.0898 4.40075 19.2409 4.54528 19.3854C5.1316 19.9619 5.70314 20.4201 6.24019 20.7551C6.27633 20.8668 6.3141 20.9785 6.35352 21.0902C5.72778 20.7749 4.94437 20.09 4.23488 19.4051Z" fill="#FEFEFE"/>
<path d="M4.28955 19.6073L4.3536 19.5531C5.10744 20.302 5.84158 20.8489 6.5018 21.1741L6.46239 21.248L6.37863 21.2776C5.88592 19.9227 5.61001 18.5332 5.61001 17.4985C5.61001 17.1931 5.63464 16.9171 5.68391 16.6806C5.73811 16.4442 5.81694 16.2471 5.92534 16.1042C6.10764 15.8726 6.32936 15.7051 6.56093 15.5918C6.7925 15.4784 7.02407 15.4095 7.22608 15.37L7.24579 15.4538L7.20145 15.5277C6.63976 15.2272 6.01895 14.9562 5.39814 14.7295L5.43263 14.6507L5.45234 14.7345C4.96949 14.8379 4.47678 15.0498 4.12203 15.4538C4.02842 15.5622 3.95944 15.7149 3.91017 15.9071C3.86582 16.0993 3.84611 16.3259 3.84611 16.5723C3.84611 17.4788 4.1171 18.6712 4.37331 19.5876L4.28955 19.6073L4.20579 19.632C3.94466 18.7057 3.66874 17.5084 3.66874 16.5723C3.66874 16.316 3.68845 16.0795 3.73772 15.8677C3.79192 15.6607 3.86582 15.4834 3.989 15.3454C4.37331 14.9069 4.91036 14.6803 5.41292 14.5669L5.43756 14.562L5.46219 14.5719C6.08793 14.8034 6.71859 15.0794 7.28521 15.3799L7.49707 15.4932L7.26057 15.5376C7.07334 15.5721 6.85163 15.6361 6.64469 15.7396C6.43282 15.848 6.23081 15.9958 6.06822 16.2027C5.97953 16.321 5.90563 16.4934 5.86128 16.7151C5.81201 16.9369 5.78738 17.2029 5.78738 17.4985C5.78738 18.5037 6.05837 19.8832 6.54615 21.2185L6.62005 21.4205L6.42297 21.3219C5.73811 20.982 4.98919 20.4252 4.2255 19.6665L4.21072 19.6517L4.20579 19.632L4.28955 19.6073Z" fill="#050505"/>
<path d="M2.91896 18.0551L3.03228 17.9763C3.48557 18.5577 3.94379 19.075 4.39215 19.5184C5.14107 20.2624 5.8752 20.8044 6.52557 21.1296C7.01335 21.371 7.45679 21.4893 7.82632 21.4893C8.00369 21.4893 8.16628 21.463 8.31409 21.4104C8.5161 21.3365 8.68362 21.2183 8.83144 21.0606C9.05315 20.8241 9.22067 20.4891 9.32414 20.1048C9.43254 19.7205 9.48181 19.2869 9.48181 18.8484C9.48181 18.3901 9.42761 17.927 9.32907 17.5131C9.29458 17.3604 9.21575 17.2027 9.0975 17.0352C8.92012 16.7888 8.64913 16.5326 8.32395 16.2863C7.99384 16.0399 7.59967 15.7985 7.17594 15.5719C6.61426 15.2713 5.99345 15.0003 5.37756 14.7737C4.81095 14.5667 4.23941 14.3943 3.727 14.276C3.20966 14.1578 2.74651 14.0937 2.39176 14.0937C2.24888 14.0937 2.12077 14.1036 2.01731 14.1233C1.91384 14.1479 1.83993 14.1775 1.79066 14.212C1.67734 14.2908 1.58372 14.3795 1.51967 14.4928C1.45069 14.6062 1.41128 14.7392 1.41128 14.9215C1.41128 15.1876 1.50489 15.5571 1.75617 16.0547C2.01238 16.5573 2.42132 17.183 3.03228 17.9763L2.91896 18.0551L2.80564 18.1339C2.18483 17.3358 1.76602 16.6952 1.50489 16.173C1.23883 15.6507 1.13043 15.2516 1.13043 14.9215C1.12551 14.6998 1.17971 14.5175 1.27332 14.3647C1.36201 14.2071 1.48518 14.0888 1.62314 13.9952C1.71675 13.9311 1.83008 13.8917 1.95818 13.8622C2.08628 13.8375 2.2341 13.8228 2.39176 13.8228C2.781 13.8228 3.26385 13.8917 3.79105 14.0149C4.32317 14.1381 4.89964 14.3105 5.48103 14.5273C6.10677 14.754 6.73743 15.0299 7.3139 15.3354C7.89529 15.6458 8.41756 15.9857 8.82158 16.3405C9.02359 16.5179 9.19604 16.7002 9.32907 16.8825C9.4621 17.0697 9.56064 17.2569 9.60499 17.454C9.70845 17.8925 9.76758 18.3704 9.76758 18.8484C9.76758 19.4593 9.67396 20.0653 9.4621 20.5728C9.3537 20.8241 9.22067 21.0508 9.0433 21.238C8.87085 21.4252 8.66392 21.573 8.41264 21.6617C8.23033 21.7258 8.03325 21.7603 7.82632 21.7603C7.39273 21.7603 6.90988 21.6223 6.39747 21.3661C5.70768 21.0261 4.95384 20.4644 4.18521 19.7007C3.73192 19.2524 3.26878 18.7252 2.80564 18.1339L2.91896 18.0551Z" fill="#050505"/>
<path d="M2.23117 4.19043L3.74378 5.46161L3.33976 6.75743L5.08887 8.58537L4.96076 8.6987L3.14268 6.79685L3.54177 5.51581L2.11785 4.31853L2.23117 4.19043Z" fill="#050505"/>
<path d="M16.3511 22.4306C16.3511 22.4306 17.4892 23.6821 19.3812 24.1748C19.437 24.1879 19.4945 24.2011 19.5536 24.2142C19.9724 24.3127 20.4257 24.3719 20.9086 24.3719C20.9086 24.3719 22.0615 23.1894 22.0615 20.6076C22.0615 18.8437 21.2387 17.5873 20.2287 17.0897L20.2237 17.0847C19.7113 16.8335 19.1447 16.7743 18.6175 16.9419C17.0408 17.4395 16.3264 19.095 16.3511 22.4306Z" fill="#FEFEFE"/>
<path fill-rule="evenodd" clip-rule="evenodd" d="M20.9136 24.4751H20.9579L20.9875 24.4406C21.0367 24.3914 22.165 23.199 22.165 20.6074C22.165 18.6365 21.1895 17.4491 20.278 16.9958C19.7261 16.7248 19.125 16.6707 18.5831 16.8431C16.9424 17.3654 16.2181 19.0898 16.2476 22.4304V22.4649L16.2723 22.4944C16.3215 22.5486 17.4548 23.7755 19.3566 24.2731C19.4125 24.2862 19.4699 24.2994 19.5291 24.3125C19.9824 24.4209 20.4504 24.4751 20.9136 24.4751ZM19.2334 16.9466C19.5488 16.9466 19.8641 17.0205 20.1745 17.1732C21.0367 17.6019 21.9532 18.7252 21.9532 20.6074C21.9532 22.8935 21.0367 24.0662 20.8643 24.2731C20.4356 24.2682 20.0021 24.214 19.5783 24.1204C19.5225 24.1072 19.4667 24.0925 19.4108 24.076C17.7258 23.6375 16.6369 22.5733 16.4595 22.391C16.4349 19.1736 17.1148 17.523 18.652 17.0353C18.8393 16.9761 19.0364 16.9466 19.2334 16.9466Z" fill="#050505"/>
<path d="M18.0805 20.8443C18.0805 22.283 18.6077 23.5295 19.3812 24.175C19.437 24.1881 19.4945 24.2012 19.5536 24.2144C19.9724 24.3129 20.4257 24.372 20.9086 24.372C20.9086 24.372 22.0615 23.1895 22.0615 20.6078C22.0615 18.8439 21.2387 17.5875 20.2287 17.0898C19.0117 17.351 18.0805 18.9326 18.0805 20.8443Z" fill="#3E88C7"/>
<path d="M19.3273 20.8244C19.3273 22.0956 19.9579 23.1302 20.7315 23.1302C21.51 23.1302 22.1406 22.0956 22.1406 20.8244C22.1406 19.5532 21.51 18.5234 20.7315 18.5234C19.9579 18.5234 19.3273 19.5532 19.3273 20.8244Z" fill="#050505"/>
<path d="M18.0805 20.8443C18.0805 22.283 18.6077 23.5295 19.3812 24.175C19.437 24.1881 19.4945 24.2012 19.5536 24.2144C19.9724 24.3129 20.4257 24.372 20.9086 24.372C20.9086 24.372 22.0615 23.1895 22.0615 20.6078C22.0615 18.8439 21.2387 17.5875 20.2287 17.0898C19.0117 17.351 18.0805 18.9326 18.0805 20.8443Z" fill="url(#paint0_linear_452_1603)"/>
<path fill-rule="evenodd" clip-rule="evenodd" d="M20.9136 24.4755H20.9579L20.9875 24.441C21.0367 24.3918 22.165 23.1994 22.165 20.6078C22.165 18.6369 21.1895 17.4495 20.278 16.9962L20.2435 16.9814L20.2041 16.9913C18.9329 17.2623 17.9721 18.9227 17.9721 20.8443C17.9721 22.2583 18.4894 23.564 19.3123 24.2489L19.332 24.2686L19.3566 24.2735C19.4125 24.2866 19.4699 24.2998 19.5291 24.3129C19.9824 24.4213 20.4504 24.4755 20.9136 24.4755ZM20.2139 17.1933C21.0614 17.6318 21.9532 18.7503 21.9532 20.6078C21.9532 22.8939 21.0367 24.0666 20.8643 24.2735C20.4356 24.2686 20.0021 24.2144 19.5783 24.1208C19.5291 24.1076 19.4814 24.0961 19.4354 24.0863C18.6619 23.431 18.184 22.1943 18.184 20.8443C18.184 19.0311 19.0561 17.4742 20.2139 17.1933Z" fill="#050505"/>
<path d="M27.816 24.1061C27.8325 24.1948 27.8522 24.2835 27.8752 24.3722C27.8752 24.3722 28.023 24.3623 28.2693 24.318C28.6044 24.2588 29.1217 24.1357 29.6834 23.8844C29.7031 23.8745 29.7212 23.8663 29.7376 23.8597C30.2796 23.6085 30.861 23.2389 31.3586 22.692C31.3586 22.692 32.073 17.9473 30.0283 17.4644C29.4715 17.3363 29.0183 17.494 28.6536 17.8586C28.5978 17.9144 28.5453 17.9735 28.496 18.036C27.5549 19.2283 27.3529 21.9086 27.816 24.1061Z" fill="#FEFEFE"/>
<path fill-rule="evenodd" clip-rule="evenodd" d="M27.7917 24.4801L27.8804 24.4702C27.8903 24.4702 28.0381 24.4604 28.2893 24.416C28.6293 24.3569 29.1565 24.2337 29.728 23.9726C29.7412 23.966 29.756 23.9594 29.7724 23.9529L29.7872 23.9479C30.4375 23.6474 30.9894 23.2483 31.4377 22.7556L31.4574 22.7359L31.4624 22.7063C31.4919 22.5092 32.1669 17.8679 30.0532 17.3703C29.4866 17.2324 28.989 17.3752 28.5751 17.7891C28.5193 17.8482 28.4651 17.9106 28.4125 17.9763C27.3926 19.2672 27.2892 22.1052 27.7129 24.1253C27.7293 24.214 27.749 24.3043 27.772 24.3963L27.7917 24.4801ZM31.2554 22.6472C30.8317 23.1054 30.3094 23.4848 29.6936 23.7656L29.6788 23.7706C29.6656 23.7771 29.6525 23.7837 29.6394 23.7903C29.0826 24.0416 28.5751 24.1598 28.2499 24.2189C28.1218 24.2436 28.0233 24.2534 27.9592 24.2633C27.9461 24.2041 27.933 24.145 27.9198 24.0859C27.432 21.7603 27.7178 19.1884 28.58 18.0995C28.626 18.0371 28.6753 17.9796 28.7279 17.9271C29.0875 17.5723 29.5162 17.4491 30.004 17.5625C31.8516 18.001 31.3096 22.253 31.2554 22.6472Z" fill="#050505"/>
<path d="M27.8164 24.1059C27.9592 24.2045 28.112 24.2734 28.2696 24.3178C28.6047 24.2587 29.122 24.1355 29.6837 23.8842C30.2651 23.3077 30.6494 22.2829 30.6494 21.1152C30.6494 19.3365 29.7576 17.8929 28.654 17.8584C28.5981 17.9142 28.5456 17.9734 28.4963 18.0358C27.5552 19.2281 27.3532 21.9084 27.8164 24.1059Z" fill="#3E88C7"/>
<path d="M27.5559 21.115C27.5559 22.2088 28.1077 23.0957 28.7926 23.0957C29.4774 23.0957 30.0342 22.2088 30.0342 21.115C30.0342 20.0163 29.4774 19.1294 28.7926 19.1294C28.1077 19.1294 27.5559 20.0163 27.5559 21.115Z" fill="#050505"/>
<path d="M27.8164 24.1059C27.9592 24.2045 28.112 24.2734 28.2696 24.3178C28.6047 24.2587 29.122 24.1355 29.6837 23.8842C30.2651 23.3077 30.6494 22.2829 30.6494 21.1152C30.6494 19.3365 29.7576 17.8929 28.654 17.8584C28.5981 17.9142 28.5456 17.9734 28.4963 18.0358C27.5552 19.2281 27.3532 21.9084 27.8164 24.1059Z" fill="url(#paint1_linear_452_1603)"/>
<path fill-rule="evenodd" clip-rule="evenodd" d="M28.2647 24.4212L28.2894 24.4162C28.6293 24.3571 29.1565 24.2339 29.7281 23.9728L29.7478 23.9679L29.7576 23.9531C30.3834 23.3372 30.7578 22.273 30.7578 21.1151C30.7578 19.2674 29.8315 17.7943 28.654 17.7598H28.6096L28.5751 17.7893C28.5193 17.8485 28.4651 17.9109 28.4125 17.9766C27.3926 19.2674 27.2892 22.1054 27.7129 24.1255L27.7178 24.16L27.7523 24.1847C27.91 24.2931 28.0726 24.3719 28.2401 24.4162L28.2647 24.4212ZM29.6197 23.8003C29.0875 24.0368 28.5998 24.1551 28.2746 24.2142C28.153 24.1781 28.0315 24.1206 27.91 24.0418C27.437 21.731 27.7227 19.1837 28.5801 18.0948C28.6195 18.0488 28.6589 18.0045 28.6983 17.9618C29.7231 18.0308 30.5459 19.43 30.5459 21.1102C30.5459 22.2138 30.2011 23.219 29.6197 23.8003Z" fill="#050505"/>
<path d="M26.3145 27.2985C26.3046 27.3034 26.0927 27.4315 25.7331 27.5596C25.3783 27.6877 24.8659 27.8159 24.2648 27.8159C23.6588 27.8159 22.9591 27.6877 22.2348 27.3034L22.4073 27.0078C23.0774 27.3626 23.713 27.4808 24.2648 27.4808C24.8117 27.4808 25.2798 27.3626 25.6099 27.2443C25.7774 27.1852 25.9055 27.1261 25.9942 27.0866C26.0369 27.0637 26.0697 27.0456 26.0927 27.0324C26.1026 27.0259 26.1108 27.021 26.1174 27.0177H26.1223L26.3145 27.2985Z" fill="#050505"/>
<path d="M14.8198 23.7608C15.4012 24.4013 16.1205 24.7167 16.426 24.4605C16.7364 24.2092 16.5147 23.4898 15.9333 22.8493C15.3519 22.2088 14.6325 21.8935 14.3221 22.1497C14.0167 22.401 14.2384 23.1203 14.8198 23.7608Z" fill="#E88F30"/>
<path d="M31.6696 24.2533C31.9159 24.4011 32.3938 24.1104 32.7338 23.6029C33.0787 23.0954 33.1575 22.5584 32.9161 22.4106C32.6698 22.2628 32.1968 22.5535 31.8519 23.0609C31.507 23.5734 31.4281 24.1055 31.6696 24.2533Z" fill="#E88F30"/>
<path d="M17.2438 15.8481L18.1553 17.1243L17.8646 17.3115L16.9531 16.0354" fill="#050505"/>
<path d="M16.2031 16.8779L17.292 17.9619L17.0358 18.1935L15.9469 17.1095" fill="#050505"/>
<path d="M31.8467 17.1046L30.9105 18.0654L30.6543 17.8338L31.5905 16.873" fill="#050505"/>
<path d="M32.3643 18.5628L31.3099 19.021L31.1621 18.7155L32.2214 18.2573" fill="#050505"/>
<path d="M18.8446 19.2526C18.8446 19.7158 19.1156 20.0902 19.4457 20.0902C19.7808 20.0902 20.0518 19.7158 20.0518 19.2526C20.0518 18.7895 19.7808 18.415 19.4457 18.415C19.1156 18.415 18.8446 18.7895 18.8446 19.2526Z" fill="#FEFEFE"/>
<path d="M29.5112 22.7706C29.5112 22.9579 29.6196 23.1106 29.7576 23.1106C29.8906 23.1106 30.0039 22.9579 30.0039 22.7706C30.0039 22.5834 29.8906 22.4307 29.7576 22.4307C29.6196 22.4307 29.5112 22.5834 29.5112 22.7706Z" fill="#FEFEFE"/>
<path d="M20.7861 23.0517C20.7861 23.2586 20.9093 23.4262 21.0571 23.4262C21.2049 23.4262 21.3281 23.2586 21.3281 23.0517C21.3281 22.8448 21.2049 22.6772 21.0571 22.6772C20.9093 22.6772 20.7861 22.8448 20.7861 23.0517Z" fill="#FEFEFE"/>
<path d="M28.122 19.5633C28.122 19.9427 28.3437 20.2481 28.6196 20.2481C28.8906 20.2481 29.1123 19.9427 29.1123 19.5633C29.1123 19.1839 28.8906 18.8784 28.6196 18.8784C28.3437 18.8784 28.122 19.1839 28.122 19.5633Z" fill="#FEFEFE"/>
<path d="M27.1951 8.27018C27.1951 8.27018 27.2887 8.69391 27.1754 9.31472C27.1754 9.31472 25.8352 7.62473 22.0365 6.02344C22.0365 6.02344 25.4805 7.06798 27.1951 8.27018Z" fill="#FEFEFE"/>
<path d="M23.3366 8.10721C23.3366 9.68387 24.6817 10.9649 26.3421 10.9649C28.0026 10.9649 29.3477 9.68387 29.3477 8.10721C29.3477 6.53055 28.0026 5.24951 26.3421 5.24951C24.6817 5.24951 23.3366 6.53055 23.3366 8.10721Z" fill="url(#paint2_radial_452_1603)"/>
<path d="M26.7029 15.5818C26.7029 17.7546 28.5555 19.5185 30.8466 19.5185C33.1327 19.5185 34.9902 17.7546 34.9902 15.5818C34.9902 13.404 33.1327 11.6401 30.8466 11.6401C28.5555 11.6401 26.7029 13.404 26.7029 15.5818Z" fill="url(#paint3_radial_452_1603)"/>
<path d="M4.22034 4.29389C4.22034 6.27457 5.91032 7.88079 7.99447 7.88079C10.0737 7.88079 11.7637 6.27457 11.7637 4.29389C11.7637 2.31321 10.0737 0.711914 7.99447 0.711914C5.91032 0.711914 4.22034 2.31321 4.22034 4.29389Z" fill="url(#paint4_radial_452_1603)"/>
<defs>
<linearGradient id="paint0_linear_452_1603" x1="26.7371" y1="24.1906" x2="26.7371" y2="19.6126" gradientUnits="userSpaceOnUse">
<stop stop-color="#7DB9E4"/>
<stop offset="1" stop-color="#7DB9E4" stop-opacity="0"/>
</linearGradient>
<linearGradient id="paint1_linear_452_1603" x1="35.8734" y1="24.7764" x2="36.1511" y2="20.3968" gradientUnits="userSpaceOnUse">
<stop stop-color="#7DB9E4"/>
<stop offset="1" stop-color="#7DB9E4" stop-opacity="0"/>
</linearGradient>
<radialGradient id="paint2_radial_452_1603" cx="0" cy="0" r="1" gradientUnits="userSpaceOnUse" gradientTransform="translate(26.3409 8.10721) rotate(180) scale(3.00502)">
<stop offset="0.215" stop-color="#FEFEFE"/>
<stop offset="1" stop-color="#FEFEFE" stop-opacity="0"/>
</radialGradient>
<radialGradient id="paint3_radial_452_1603" cx="0" cy="0" r="1" gradientUnits="userSpaceOnUse" gradientTransform="translate(30.8446 15.58) rotate(180) scale(4.14371)">
<stop offset="0.215" stop-color="#FEFEFE"/>
<stop offset="1" stop-color="#FEFEFE" stop-opacity="0"/>
</radialGradient>
<radialGradient id="paint4_radial_452_1603" cx="0" cy="0" r="1" gradientUnits="userSpaceOnUse" gradientTransform="translate(7.99205 4.29419) rotate(180) scale(3.77137)">
<stop offset="0.215" stop-color="#FEFEFE"/>
<stop offset="1" stop-color="#FEFEFE" stop-opacity="0"/>
</radialGradient>
</defs>
</svg>
